<?xml version="1.0" encoding="UTF-8"?>
<svg xmlns="http://www.w3.org/2000/svg" 
     xmlns:xlink="http://www.w3.org/1999/xlink"
     width="1480" height="1580" 
     viewBox="0 0 1480 1580">
  <defs>
    <radialGradient id="leafGradient">
      <stop offset="0%" style="stop-color:#22c55e;stop-opacity:1" />
      <stop offset="100%" style="stop-color:#16a34a;stop-opacity:0.8" />
    </radialGradient>
    <radialGradient id="mergeGradient">
      <stop offset="0%" style="stop-color:#a78bfa;stop-opacity:1" />
      <stop offset="100%" style="stop-color:#7c3aed;stop-opacity:0.8" />
    </radialGradient>
    <radialGradient id="forkGradient">
      <stop offset="0%" style="stop-color:#fb923c;stop-opacity:1" />
      <stop offset="100%" style="stop-color:#ea580c;stop-opacity:0.8" />
    </radialGradient>
    <radialGradient id="tagGradient">
      <stop offset="0%" style="stop-color:#38bdf8;stop-opacity:1" />
      <stop offset="100%" style="stop-color:#0284c7;stop-opacity:0.8" />
    </radialGradient>
    <style>
      .branch-line { stroke: #64748b; stroke-width: 2; fill: none; opacity: 0.7; }
      .trunk-line { stroke: #22c55e; stroke-width: 2.5; fill: none; opacity: 0.6; }
      .commit-leaf { cursor: pointer; }
      .commit-leaf:hover { filter: brightness(1.5); }
      .branch-label { font-family: sans-serif; font-size: 12px; font-weight: bold; fill: #0f172a; }
    </style>
  </defs>
  
  <rect width="1480" height="1580" fill="#f8fafc"/>
  <defs>
    <pattern id="grid" width="100" height="100" patternUnits="userSpaceOnUse">
      <path d="M 100 0 L 0 0 0 100" fill="none" stroke="#e2e8f0" stroke-width="0.5" opacity="0.3"/>
    </pattern>
  </defs>
  <rect width="1480" height="1580" fill="url(#grid)"/>
  
  <!-- Branch connection lines -->
  <g id="branches">
    <line class="trunk-line" x1="600" y1="60" x2="600" y2="100"/>
    <line class="trunk-line" x1="600" y1="100" x2="600" y2="140"/>
    <line class="trunk-line" x1="600" y1="140" x2="600" y2="260"/>
    <path class="branch-line" d="M 600 140 C 600 156, 720 164, 720 180"/>
    <path class="branch-line" d="M 720 180 C 720 212, 600 228, 600 260"/>
    <line class="trunk-line" x1="600" y1="260" x2="600" y2="300"/>
    <line class="trunk-line" x1="600" y1="300" x2="600" y2="340"/>
    <line class="trunk-line" x1="600" y1="340" x2="600" y2="460"/>
    <path class="branch-line" d="M 480 380 C 480 428, 840 452, 840 500"/>
    <line class="trunk-line" x1="600" y1="460" x2="600" y2="580"/>
    <path class="branch-line" d="M 840 500 C 840 548, 360 572, 360 620"/>
    <line class="trunk-line" x1="600" y1="580" x2="600" y2="700"/>
    <path class="branch-line" d="M 360 620 C 360 668, 960 692, 960 740"/>
    <line class="trunk-line" x1="600" y1="700" x2="600" y2="820"/>
    <path class="branch-line" d="M 960 740 C 960 772, 600 788, 600 820"/>
    <line class="trunk-line" x1="600" y1="820" x2="600" y2="860"/>
    <line class="trunk-line" x1="600" y1="860" x2="600" y2="1060"/>
    <path class="branch-line" d="M 240 900 C 240 932, 1080 948, 1080 980"/>
    <path class="branch-line" d="M 1080 980 C 1080 1012, 600 1028, 600 1060"/>
    <line class="trunk-line" x1="600" y1="1060" x2="600" y2="1180"/>
    <path class="branch-line" d="M 600 1060 C 600 1076, 120 1084, 120 1100"/>
    <path class="branch-line" d="M 120 1100 C 120 1132, 600 1148, 600 1180"/>
    <line class="trunk-line" x1="600" y1="1180" x2="600" y2="1220"/>
    <line class="trunk-line" x1="600" y1="1220" x2="600" y2="1260"/>
    <line class="trunk-line" x1="600" y1="1260" x2="600" y2="1380"/>
    <path class="branch-line" d="M 600 1260 C 600 1276, 1200 1284, 1200 1300"/>
    <path class="branch-line" d="M 1200 1300 C 1200 1332, 600 1348, 600 1380"/>
    <line class="trunk-line" x1="600" y1="1380" x2="600" y2="1420"/>
    <line class="trunk-line" x1="600" y1="1420" x2="600" y2="1460"/>
  </g>
  <!-- Commit nodes -->
  <g id="commits">
    <circle class="commit-leaf" cx="600" cy="60" r="6" fill="url(#leafGradient)" stroke="#16a34a" stroke-width="1.5"><title>c34395f: fix(prefix): remove extension dependency from tray fix</title></circle>
    <g class="commit-leaf"><rect x="591" y="91" width="18" height="18" rx="3" transform="rotate(45 600 100)" fill="#475569" stroke="#cbd5e1" stroke-width="1.5"/><text x="600" y="104" text-anchor="middle" font-family="sans-serif" font-size="11" font-weight="bold" fill="#f8fafc">18</text><title>18 commits</title></g>
    <circle class="commit-leaf" cx="600" cy="140" r="10" fill="url(#mergeGradient)" stroke="#7c3aed" stroke-width="1.5"><title>b258330: Merge pull request #3 from XAOSTECH/humanise/20260915-080739</title></circle>
    <circle class="commit-leaf" cx="720" cy="180" r="6" fill="url(#leafGradient)" stroke="#16a34a" stroke-width="1.5"><title>3aa5413: chore: humanise hard-wrapped comments and prose</title></circle>
    <circle class="commit-leaf" cx="600" cy="260" r="9" fill="url(#forkGradient)" stroke="#ea580c" stroke-width="1.5"><title>b79cb6a: fix(apps,prefix): suppress EOS update loop; re-apply registry on quick</title></circle>
    <g class="commit-leaf"><rect x="591" y="291" width="18" height="18" rx="3" transform="rotate(45 600 300)" fill="#475569" stroke="#cbd5e1" stroke-width="1.5"/><text x="600" y="304" text-anchor="middle" font-family="sans-serif" font-size="11" font-weight="bold" fill="#f8fafc">4</text><title>4 commits</title></g>
    <circle class="commit-leaf" cx="600" cy="340" r="6" fill="url(#leafGradient)" stroke="#16a34a" stroke-width="1.5"><title>b459de2: chore(dc-init): load workflows,actions</title></circle>
    <circle class="commit-leaf" cx="480" cy="380" r="6" fill="url(#tagGradient)" stroke="#0284c7" stroke-width="1.5"><title>c7019cd: chore(dc-init): load workflows,actions</title></circle>
    <circle class="commit-leaf" cx="600" cy="460" r="6" fill="url(#leafGradient)" stroke="#16a34a" stroke-width="1.5"><title>a14063e: fix(prefix,shortcuts,setup): skip installed winetricks verbs; install-shortcut all --reinstall</title></circle>
    <circle class="commit-leaf" cx="840" cy="500" r="6" fill="url(#leafGradient)" stroke="#16a34a" stroke-width="1.5"><title>adcdd6c: fix(prefix,shortcuts,setup): skip installed winetricks verbs; install-shortcut all --reinstall</title></circle>
    <circle class="commit-leaf" cx="600" cy="580" r="6" fill="url(#leafGradient)" stroke="#16a34a" stroke-width="1.5"><title>496a28f: chore: update git tree visualisation</title></circle>
    <circle class="commit-leaf" cx="360" cy="620" r="6" fill="url(#leafGradient)" stroke="#16a34a" stroke-width="1.5"><title>ba42e27: chore: update git tree visualisation</title></circle>
    <circle class="commit-leaf" cx="600" cy="700" r="6" fill="url(#leafGradient)" stroke="#16a34a" stroke-width="1.5"><title>fb8b943: chore(dc-init): update workflows + actions</title></circle>
    <circle class="commit-leaf" cx="960" cy="740" r="6" fill="url(#leafGradient)" stroke="#16a34a" stroke-width="1.5"><title>1f4f385: chore(dc-init): update workflows + actions</title></circle>
    <circle class="commit-leaf" cx="600" cy="820" r="9" fill="url(#forkGradient)" stroke="#ea580c" stroke-width="1.5"><title>60dd34d: fix(shortcuts): StartupNotify=false + StartupWMClass + Actions= for GNOME taskbar responsiveness</title></circle>
    <g class="commit-leaf"><rect x="591" y="851" width="18" height="18" rx="3" transform="rotate(45 600 860)" fill="#475569" stroke="#cbd5e1" stroke-width="1.5"/><text x="600" y="864" text-anchor="middle" font-family="sans-serif" font-size="11" font-weight="bold" fill="#f8fafc">65</text><title>65 commits</title></g>
    <circle class="commit-leaf" cx="240" cy="900" r="6" fill="url(#leafGradient)" stroke="#16a34a" stroke-width="1.5"><title>2910c99: experiment(xbox): iter 10 — add HTTPS/auth trace channels</title></circle>
    <g class="commit-leaf"><rect x="1071" y="971" width="18" height="18" rx="3" transform="rotate(45 1080 980)" fill="#475569" stroke="#cbd5e1" stroke-width="1.5"/><text x="1080" y="984" text-anchor="middle" font-family="sans-serif" font-size="11" font-weight="bold" fill="#f8fafc">15</text><title>15 commits</title></g>
    <circle class="commit-leaf" cx="600" cy="1060" r="10" fill="url(#mergeGradient)" stroke="#7c3aed" stroke-width="1.5"><title>88b253c: Merge pull request #2 from XAOSTECH/anglicise/20260415-232714</title></circle>
    <circle class="commit-leaf" cx="120" cy="1100" r="6" fill="url(#leafGradient)" stroke="#16a34a" stroke-width="1.5"><title>7acf70f: chore: convert American spellings to British English</title></circle>
    <circle class="commit-leaf" cx="600" cy="1180" r="9" fill="url(#forkGradient)" stroke="#ea580c" stroke-width="1.5"><title>bdba0f2: chore: update CHANGELOG for v0.1.1 (re-release)</title></circle>
    <g class="commit-leaf"><rect x="591" y="1211" width="18" height="18" rx="3" transform="rotate(45 600 1220)" fill="#475569" stroke="#cbd5e1" stroke-width="1.5"/><text x="600" y="1224" text-anchor="middle" font-family="sans-serif" font-size="11" font-weight="bold" fill="#f8fafc">7</text><title>7 commits</title></g>
    <circle class="commit-leaf" cx="600" cy="1260" r="10" fill="url(#mergeGradient)" stroke="#7c3aed" stroke-width="1.5"><title>838b9c4: Merge pull request #1 from XAOSTECH/anglicise/20260401-002733</title></circle>
    <circle class="commit-leaf" cx="1200" cy="1300" r="6" fill="url(#leafGradient)" stroke="#16a34a" stroke-width="1.5"><title>6b90c0c: chore: convert American spellings to British English</title></circle>
    <circle class="commit-leaf" cx="600" cy="1380" r="9" fill="url(#forkGradient)" stroke="#ea580c" stroke-width="1.5"><title>56414f6: chore: update CHANGELOG for v0.1.1 (re-release)</title></circle>
    <g class="commit-leaf"><rect x="591" y="1411" width="18" height="18" rx="3" transform="rotate(45 600 1420)" fill="#475569" stroke="#cbd5e1" stroke-width="1.5"/><text x="600" y="1424" text-anchor="middle" font-family="sans-serif" font-size="11" font-weight="bold" fill="#f8fafc">11</text><title>11 commits</title></g>
    <circle class="commit-leaf" cx="600" cy="1460" r="6" fill="url(#tagGradient)" stroke="#0284c7" stroke-width="1.5"><title>4854ca9: Init</title></circle>
  </g>
  
  <!-- Legend -->
  <g id="legend" transform="translate(20, 20)">
    <rect width="200" height="110" fill="white" stroke="#cbd5e1" stroke-width="1" rx="4"/>
    <circle cx="20" cy="25" r="5" fill="url(#leafGradient)" stroke="#16a34a"/>
    <text x="32" y="30" class="branch-label" font-size="12">Regular Commit</text>
    <circle cx="20" cy="50" r="6" fill="url(#mergeGradient)" stroke="#7c3aed"/>
    <text x="32" y="55" class="branch-label" font-size="12">Merge Commit</text>
    <circle cx="20" cy="75" r="6" fill="url(#forkGradient)" stroke="#ea580c"/>
    <text x="32" y="80" class="branch-label" font-size="12">Fork Point</text>
    <circle cx="20" cy="100" r="6" fill="url(#tagGradient)" stroke="#0284c7"/>
    <text x="32" y="105" class="branch-label" font-size="12">Tagged</text>
  </g>
  
  <!-- Repository info -->
  <g id="info" transform="translate(20, 1540)">
    <text x="0" y="0" class="branch-label" font-size="12" fill="#666">
      Repository: wine-gaming
    </text>
    <text x="0" y="20" class="branch-label" font-size="10" fill="#999">
      Generated: 2026-09-20 15:29:23 UTC
    </text>
  </g>
</svg>
