<?xml version="1.0" encoding="UTF-8"?>
<svg xmlns="http://www.w3.org/2000/svg" 
     xmlns:xlink="http://www.w3.org/1999/xlink"
     width="2560" height="3820" 
     viewBox="0 0 2560 3820">
  <defs>
    <radialGradient id="leafGradient">
      <stop offset="0%" style="stop-color:#22c55e;stop-opacity:1" />
      <stop offset="100%" style="stop-color:#16a34a;stop-opacity:0.8" />
    </radialGradient>
    <radialGradient id="mergeGradient">
      <stop offset="0%" style="stop-color:#a78bfa;stop-opacity:1" />
      <stop offset="100%" style="stop-color:#7c3aed;stop-opacity:0.8" />
    </radialGradient>
    <radialGradient id="forkGradient">
      <stop offset="0%" style="stop-color:#fb923c;stop-opacity:1" />
      <stop offset="100%" style="stop-color:#ea580c;stop-opacity:0.8" />
    </radialGradient>
    <radialGradient id="tagGradient">
      <stop offset="0%" style="stop-color:#38bdf8;stop-opacity:1" />
      <stop offset="100%" style="stop-color:#0284c7;stop-opacity:0.8" />
    </radialGradient>
    <style>
      .branch-line { stroke: #64748b; stroke-width: 2; fill: none; opacity: 0.7; }
      .trunk-line { stroke: #22c55e; stroke-width: 2.5; fill: none; opacity: 0.6; }
      .commit-leaf { cursor: pointer; }
      .commit-leaf:hover { filter: brightness(1.5); }
      .branch-label { font-family: sans-serif; font-size: 12px; font-weight: bold; fill: #0f172a; }
    </style>
  </defs>
  
  <rect width="2560" height="3820" fill="#f8fafc"/>
  <defs>
    <pattern id="grid" width="100" height="100" patternUnits="userSpaceOnUse">
      <path d="M 100 0 L 0 0 0 100" fill="none" stroke="#e2e8f0" stroke-width="0.5" opacity="0.3"/>
    </pattern>
  </defs>
  <rect width="2560" height="3820" fill="url(#grid)"/>
  
  <!-- Branch connection lines -->
  <g id="branches">
    <line class="trunk-line" x1="600" y1="60" x2="600" y2="100"/>
    <line class="trunk-line" x1="600" y1="100" x2="600" y2="140"/>
    <line class="trunk-line" x1="600" y1="140" x2="600" y2="180"/>
    <line class="trunk-line" x1="600" y1="180" x2="600" y2="220"/>
    <line class="trunk-line" x1="600" y1="220" x2="600" y2="260"/>
    <line class="trunk-line" x1="600" y1="260" x2="600" y2="300"/>
    <line class="trunk-line" x1="600" y1="300" x2="600" y2="340"/>
    <line class="trunk-line" x1="600" y1="340" x2="600" y2="380"/>
    <line class="trunk-line" x1="600" y1="380" x2="600" y2="420"/>
    <line class="trunk-line" x1="600" y1="420" x2="600" y2="460"/>
    <line class="trunk-line" x1="600" y1="460" x2="600" y2="500"/>
    <line class="trunk-line" x1="600" y1="500" x2="600" y2="540"/>
    <line class="trunk-line" x1="600" y1="540" x2="600" y2="580"/>
    <line class="trunk-line" x1="600" y1="580" x2="600" y2="620"/>
    <line class="trunk-line" x1="600" y1="620" x2="600" y2="660"/>
    <line class="trunk-line" x1="600" y1="660" x2="600" y2="700"/>
    <line class="trunk-line" x1="600" y1="700" x2="600" y2="740"/>
    <line class="trunk-line" x1="600" y1="740" x2="600" y2="780"/>
    <line class="trunk-line" x1="600" y1="780" x2="600" y2="820"/>
    <line class="trunk-line" x1="600" y1="820" x2="600" y2="860"/>
    <line class="trunk-line" x1="600" y1="860" x2="600" y2="900"/>
    <line class="trunk-line" x1="600" y1="900" x2="600" y2="940"/>
    <line class="trunk-line" x1="600" y1="940" x2="600" y2="980"/>
    <line class="trunk-line" x1="600" y1="980" x2="600" y2="1020"/>
    <line class="trunk-line" x1="600" y1="1020" x2="600" y2="1060"/>
    <line class="trunk-line" x1="600" y1="1060" x2="600" y2="1100"/>
    <line class="trunk-line" x1="600" y1="1100" x2="600" y2="1140"/>
    <line class="trunk-line" x1="600" y1="1140" x2="600" y2="1180"/>
    <line class="trunk-line" x1="600" y1="1180" x2="600" y2="1220"/>
    <line class="trunk-line" x1="600" y1="1220" x2="600" y2="1260"/>
    <line class="trunk-line" x1="600" y1="1260" x2="600" y2="1300"/>
    <line class="trunk-line" x1="600" y1="1300" x2="600" y2="1340"/>
    <line class="trunk-line" x1="600" y1="1340" x2="600" y2="2660"/>
    <path class="branch-line" d="M 720 1380 C 720 1412, 480 1428, 480 1460"/>
    <path class="branch-line" d="M 480 1460 C 480 1492, 840 1508, 840 1540"/>
    <path class="branch-line" d="M 840 1540 C 840 1572, 360 1588, 360 1620"/>
    <path class="branch-line" d="M 360 1620 C 360 1652, 960 1668, 960 1700"/>
    <path class="branch-line" d="M 960 1700 C 960 1732, 240 1748, 240 1780"/>
    <path class="branch-line" d="M 240 1780 C 240 1812, 1080 1828, 1080 1860"/>
    <path class="branch-line" d="M 1080 1860 C 1080 1892, 120 1908, 120 1940"/>
    <path class="branch-line" d="M 120 1940 C 120 1972, 1200 1988, 1200 2020"/>
    <path class="branch-line" d="M 1200 2020 C 1200 2052, 0 2068, 0 2100"/>
    <path class="branch-line" d="M 0 2100 C 0 2132, 1320 2148, 1320 2180"/>
    <path class="branch-line" d="M 1320 2180 C 1320 2212, -120 2228, -120 2260"/>
    <path class="branch-line" d="M -120 2260 C -120 2292, 1440 2308, 1440 2340"/>
    <path class="branch-line" d="M 1440 2340 C 1440 2372, -240 2388, -240 2420"/>
    <path class="branch-line" d="M -240 2420 C -240 2452, 1560 2468, 1560 2500"/>
    <path class="branch-line" d="M 1560 2500 C 1560 2532, -360 2548, -360 2580"/>
    <path class="branch-line" d="M -360 2580 C -360 2612, 600 2628, 600 2660"/>
    <line class="trunk-line" x1="600" y1="2660" x2="600" y2="2780"/>
    <path class="branch-line" d="M 600 2660 C 600 2676, 1680 2684, 1680 2700"/>
    <path class="branch-line" d="M 1680 2700 C 1680 2732, 600 2748, 600 2780"/>
    <line class="trunk-line" x1="600" y1="2780" x2="600" y2="2820"/>
    <line class="trunk-line" x1="600" y1="2820" x2="600" y2="2860"/>
    <line class="trunk-line" x1="600" y1="2860" x2="600" y2="2900"/>
    <line class="trunk-line" x1="600" y1="2900" x2="600" y2="2940"/>
    <line class="trunk-line" x1="600" y1="2940" x2="600" y2="2980"/>
    <line class="trunk-line" x1="600" y1="2980" x2="600" y2="3020"/>
    <line class="trunk-line" x1="600" y1="3020" x2="600" y2="3060"/>
    <line class="trunk-line" x1="600" y1="3060" x2="600" y2="3100"/>
    <line class="trunk-line" x1="600" y1="3100" x2="600" y2="3220"/>
    <path class="branch-line" d="M 600 3100 C 600 3116, -480 3124, -480 3140"/>
    <path class="branch-line" d="M -480 3140 C -480 3172, 600 3188, 600 3220"/>
    <line class="trunk-line" x1="600" y1="3220" x2="600" y2="3260"/>
    <line class="trunk-line" x1="600" y1="3260" x2="600" y2="3300"/>
    <line class="trunk-line" x1="600" y1="3300" x2="600" y2="3340"/>
    <line class="trunk-line" x1="600" y1="3340" x2="600" y2="3380"/>
    <line class="trunk-line" x1="600" y1="3380" x2="600" y2="3420"/>
    <line class="trunk-line" x1="600" y1="3420" x2="600" y2="3460"/>
    <line class="trunk-line" x1="600" y1="3460" x2="600" y2="3500"/>
    <line class="trunk-line" x1="600" y1="3500" x2="600" y2="3540"/>
    <line class="trunk-line" x1="600" y1="3540" x2="600" y2="3580"/>
    <line class="trunk-line" x1="600" y1="3580" x2="600" y2="3620"/>
    <line class="trunk-line" x1="600" y1="3620" x2="600" y2="3660"/>
    <line class="trunk-line" x1="600" y1="3660" x2="600" y2="3700"/>
  </g>
  <!-- Commit nodes -->
  <g id="commits">
    <circle class="commit-leaf" cx="600" cy="60" r="6" fill="url(#leafGradient)" stroke="#16a34a" stroke-width="1.5"><title>b2318b3: feat(prefix,setup,aliases): wig kill, backup-data/restore-data, install-proton auto-kill</title></circle>
    <circle class="commit-leaf" cx="600" cy="100" r="6" fill="url(#leafGradient)" stroke="#16a34a" stroke-width="1.5"><title>cd2a59b: feat(prefix,setup): parameterise install-proton with version/latest + list-proton</title></circle>
    <circle class="commit-leaf" cx="600" cy="140" r="6" fill="url(#leafGradient)" stroke="#16a34a" stroke-width="1.5"><title>058314e: chore: update CHANGELOG for v0.1.1 (re-release)</title></circle>
    <circle class="commit-leaf" cx="600" cy="180" r="6" fill="url(#leafGradient)" stroke="#16a34a" stroke-width="1.5"><title>7db4ff3: fix(apps,config,launch): register EABackgroundService, -EpicPortal launch arg</title></circle>
    <circle class="commit-leaf" cx="600" cy="220" r="6" fill="url(#leafGradient)" stroke="#16a34a" stroke-width="1.5"><title>c9b088a: fix(apps,config,prefix): configure EA and its bg services + create/export DXVK</title></circle>
    <circle class="commit-leaf" cx="600" cy="260" r="6" fill="url(#leafGradient)" stroke="#16a34a" stroke-width="1.5"><title>7887101: fix(apps,config,prefix): msiextract for EA Desktop, fix copy root, clean up Wine windows</title></circle>
    <circle class="commit-leaf" cx="600" cy="300" r="6" fill="url(#leafGradient)" stroke="#16a34a" stroke-width="1.5"><title>e60f167: fix(apps,config,prefix): EA app direct MSI + admin install, Epic msiexec revert, winetricks pfx target, Proton wine64 for verbs, wineboot removal, noise filter, PROTON_LOG=1 pipe-detection fix, vcrun2022, pre-create Windows dirs, DisableRollback reg, WINEDLLOVERRIDES winemenubuilder=d, Z: drive removal, --reinstall flag propagation</title></circle>
    <circle class="commit-leaf" cx="600" cy="340" r="6" fill="url(#leafGradient)" stroke="#16a34a" stroke-width="1.5"><title>c9442d4: fix(apps,config): bypass EA bootstrapper; run MSI directly with MSIFASTINSTALL=3 EAX_LAUNCH_CLIENT=0</title></circle>
    <circle class="commit-leaf" cx="600" cy="380" r="6" fill="url(#leafGradient)" stroke="#16a34a" stroke-width="1.5"><title>299f78c: fix(ea+deps): pfx ProgramData folder creation + vcrun2022</title></circle>
    <circle class="commit-leaf" cx="600" cy="420" r="6" fill="url(#leafGradient)" stroke="#16a34a" stroke-width="1.5"><title>30247e9: chore: update CHANGELOG for v0.1.1 (re-release)</title></circle>
    <circle class="commit-leaf" cx="600" cy="460" r="6" fill="url(#leafGradient)" stroke="#16a34a" stroke-width="1.5"><title>92f8d1f: fix(prefix): remove wineboot, fix winetricks target/wine-binary, drop system-wine calls</title></circle>
    <circle class="commit-leaf" cx="600" cy="500" r="6" fill="url(#leafGradient)" stroke="#16a34a" stroke-width="1.5"><title>7ee8250: feat(prefix,setup): add --reinstall flag to init/full/quick</title></circle>
    <circle class="commit-leaf" cx="600" cy="540" r="6" fill="url(#leafGradient)" stroke="#16a34a" stroke-width="1.5"><title>ef92f84: fix(prefix,apps,config): winetricks skip guard, WINETRICKS_LATEST_VERSION_CHECK=enabled, Proton install noise filter, EA Desktop exe path</title></circle>
    <circle class="commit-leaf" cx="600" cy="580" r="6" fill="url(#leafGradient)" stroke="#16a34a" stroke-width="1.5"><title>2742c9b: feat(prefix.sh): add i386 arch, wine, wine64, wine32:i386, winetricks</title></circle>
    <circle class="commit-leaf" cx="600" cy="620" r="6" fill="url(#leafGradient)" stroke="#16a34a" stroke-width="1.5"><title>6595c20: fix(utils.sh): repair check_proton message and widen exclude to WINE_DIR</title></circle>
    <circle class="commit-leaf" cx="600" cy="660" r="6" fill="url(#leafGradient)" stroke="#16a34a" stroke-width="1.5"><title>228a3f4: fix(apps.sh): install MSIs via msiexec and verify the app actually landed</title></circle>
    <circle class="commit-leaf" cx="600" cy="700" r="6" fill="url(#leafGradient)" stroke="#16a34a" stroke-width="1.5"><title>90eabb1: fix(prefix.sh): pause clamav on-access during Proton-GE extraction</title></circle>
    <circle class="commit-leaf" cx="600" cy="740" r="6" fill="url(#leafGradient)" stroke="#16a34a" stroke-width="1.5"><title>2949b35: feat(utils.sh): detect AV-quarantined Proton DLL and guide recovery</title></circle>
    <circle class="commit-leaf" cx="600" cy="780" r="6" fill="url(#leafGradient)" stroke="#16a34a" stroke-width="1.5"><title>d218bfe: fix(apps.sh): enable Proton log and warn on slow first-run prefix build</title></circle>
    <circle class="commit-leaf" cx="600" cy="820" r="6" fill="url(#leafGradient)" stroke="#16a34a" stroke-width="1.5"><title>d87eda9: fix(apps.sh): create prefix dir before Proton acquires pfx.lock</title></circle>
    <circle class="commit-leaf" cx="600" cy="860" r="6" fill="url(#leafGradient)" stroke="#16a34a" stroke-width="1.5"><title>1de93ef: fix(registry.sh): guard empty app key to avoid bad array subscript</title></circle>
    <circle class="commit-leaf" cx="600" cy="900" r="6" fill="url(#leafGradient)" stroke="#16a34a" stroke-width="1.5"><title>cc9a710: chore: update deps, workflow, URL</title></circle>
    <circle class="commit-leaf" cx="600" cy="940" r="6" fill="url(#leafGradient)" stroke="#16a34a" stroke-width="1.5"><title>13d6506: chore: update git tree visualisation</title></circle>
    <circle class="commit-leaf" cx="600" cy="980" r="6" fill="url(#leafGradient)" stroke="#16a34a" stroke-width="1.5"><title>534a268: feat(profile): expand knob catalogue (DLSS-SR/RR, Reflex, FSR custom res, NV power, shader cache)</title></circle>
    <circle class="commit-leaf" cx="600" cy="1020" r="6" fill="url(#leafGradient)" stroke="#16a34a" stroke-width="1.5"><title>e7cff5f: feat(profile): --profile flag for launch and install-shortcut</title></circle>
    <circle class="commit-leaf" cx="600" cy="1060" r="6" fill="url(#leafGradient)" stroke="#16a34a" stroke-width="1.5"><title>a52b8ea: feat(registry): user app registry with optional launcher grouping; wig add/remove</title></circle>
    <circle class="commit-leaf" cx="600" cy="1100" r="6" fill="url(#leafGradient)" stroke="#16a34a" stroke-width="1.5"><title>879eb5b: refactor(profile): move profiles to XDG_CONFIG_HOME with auto-migration</title></circle>
    <circle class="commit-leaf" cx="600" cy="1140" r="6" fill="url(#leafGradient)" stroke="#16a34a" stroke-width="1.5"><title>ba4452d: fix(init): split winetricks into per-verb passes with progress; stream heavy verbs</title></circle>
    <circle class="commit-leaf" cx="600" cy="1180" r="6" fill="url(#leafGradient)" stroke="#16a34a" stroke-width="1.5"><title>d72fed8: feat: install gamemode/mangohud via apt; add install-shortcut all</title></circle>
    <circle class="commit-leaf" cx="600" cy="1220" r="6" fill="url(#leafGradient)" stroke="#16a34a" stroke-width="1.5"><title>858067d: feat(profile): per-launcher launch profiles for FPS cap, HUD, FSR, NVAPI, gamemode</title></circle>
    <circle class="commit-leaf" cx="600" cy="1260" r="6" fill="url(#leafGradient)" stroke="#16a34a" stroke-width="1.5"><title>f150135: fix: send log helpers to stderr; drop chromium flags; redirect proton output</title></circle>
    <circle class="commit-leaf" cx="600" cy="1300" r="6" fill="url(#leafGradient)" stroke="#16a34a" stroke-width="1.5"><title>bd78834: fix(legacy-games): update install paths</title></circle>
    <circle class="commit-leaf" cx="600" cy="1340" r="6" fill="url(#leafGradient)" stroke="#16a34a" stroke-width="1.5"><title>0355d35: fix(amazon-games): update download link and install paths</title></circle>
    <circle class="commit-leaf" cx="720" cy="1380" r="6" fill="url(#leafGradient)" stroke="#16a34a" stroke-width="1.5"><title>2910c99: experiment(xbox): iter 10 — add HTTPS/auth trace channels</title></circle>
    <circle class="commit-leaf" cx="480" cy="1460" r="6" fill="url(#leafGradient)" stroke="#16a34a" stroke-width="1.5"><title>dfebc00: experiment(xbox): iter 9d — fix trap loop, add error-event reporting</title></circle>
    <circle class="commit-leaf" cx="840" cy="1540" r="6" fill="url(#leafGradient)" stroke="#16a34a" stroke-width="1.5"><title>38c6f70: experiment(xbox): iter 9c — bypass wig in trace mode</title></circle>
    <circle class="commit-leaf" cx="360" cy="1620" r="6" fill="url(#leafGradient)" stroke="#16a34a" stroke-width="1.5"><title>daf1ae9: experiment(xbox): iter 9b — fix tracer to read Proton log</title></circle>
    <circle class="commit-leaf" cx="960" cy="1700" r="6" fill="url(#leafGradient)" stroke="#16a34a" stroke-width="1.5"><title>044d8d3: experiment(xbox): iter 9 — opt-in service-query tracer</title></circle>
    <circle class="commit-leaf" cx="240" cy="1780" r="6" fill="url(#leafGradient)" stroke="#16a34a" stroke-width="1.5"><title>509c00b: experiment(xbox): iter 8 — PackageVolume stub</title></circle>
    <circle class="commit-leaf" cx="1080" cy="1860" r="6" fill="url(#leafGradient)" stroke="#16a34a" stroke-width="1.5"><title>1a6b03d: experiment(xbox): iter 7 — AnalyticsVersionInfo stub + download tracer</title></circle>
    <circle class="commit-leaf" cx="120" cy="1940" r="6" fill="url(#leafGradient)" stroke="#16a34a" stroke-width="1.5"><title>d962508: experiment(xbox): iter 6 — fix PackageManager signatures, return empty enumerables</title></circle>
    <circle class="commit-leaf" cx="1200" cy="2020" r="6" fill="url(#leafGradient)" stroke="#16a34a" stroke-width="1.5"><title>380a279: experiment(xbox): iter 5 (final) — Package + AnalyticsInfo stubs + conclusion</title></circle>
    <circle class="commit-leaf" cx="0" cy="2100" r="6" fill="url(#leafGradient)" stroke="#16a34a" stroke-width="1.5"><title>4e4d62c: experiment(xbox): iter 4 — TypedEventHandler + PackageManager (the MSIX wall)</title></circle>
    <circle class="commit-leaf" cx="1320" cy="2180" r="6" fill="url(#leafGradient)" stroke="#16a34a" stroke-width="1.5"><title>548abda: fix(xbox-stub): make native GAC optional, add Wine-Mono GAC path</title></circle>
    <circle class="commit-leaf" cx="-120" cy="2260" r="6" fill="url(#leafGradient)" stroke="#16a34a" stroke-width="1.5"><title>2e41761: fix(xbox-stub): awk skipped real .assembly because '.assembly extern' matched first</title></circle>
    <circle class="commit-leaf" cx="1440" cy="2340" r="6" fill="url(#leafGradient)" stroke="#16a34a" stroke-width="1.5"><title>759a5c6: experiment(xbox): iter 3 — multi-stub build, add FoundationContract</title></circle>
    <circle class="commit-leaf" cx="-240" cy="2420" r="6" fill="url(#leafGradient)" stroke="#16a34a" stroke-width="1.5"><title>613638f: chore(xbox): gitignore built stub dll, untrack stale artifact</title></circle>
    <circle class="commit-leaf" cx="1560" cy="2500" r="6" fill="url(#leafGradient)" stroke="#16a34a" stroke-width="1.5"><title>0a5787c: experiment(xbox): iter 2 — define UISettings skeleton in WinRT stub</title></circle>
    <circle class="commit-leaf" cx="-360" cy="2580" r="6" fill="url(#leafGradient)" stroke="#16a34a" stroke-width="1.5"><title>6a7d91c: experiment(xbox): document attempts + stub WinRT contract assembly</title></circle>
    <circle class="commit-leaf" cx="600" cy="2660" r="10" fill="url(#mergeGradient)" stroke="#7c3aed" stroke-width="1.5"><title>88b253c: Merge pull request #2 from XAOSTECH/anglicise/20260415-232714</title></circle>
    <circle class="commit-leaf" cx="1680" cy="2700" r="6" fill="url(#leafGradient)" stroke="#16a34a" stroke-width="1.5"><title>7acf70f: chore: convert American spellings to British English</title></circle>
    <circle class="commit-leaf" cx="600" cy="2780" r="9" fill="url(#forkGradient)" stroke="#ea580c" stroke-width="1.5"><title>bdba0f2: chore: update CHANGELOG for v0.1.1 (re-release)</title></circle>
    <circle class="commit-leaf" cx="600" cy="2820" r="6" fill="url(#leafGradient)" stroke="#16a34a" stroke-width="1.5"><title>1f8d8fb: fix(init): notice on re-run when prefix exists, suppress wineboot stderr noise</title></circle>
    <circle class="commit-leaf" cx="600" cy="2860" r="6" fill="url(#leafGradient)" stroke="#16a34a" stroke-width="1.5"><title>2a4a94b: chore(readme): document wig global command, icon extraction, new commands, directories, v1.1 changelog</title></circle>
    <circle class="commit-leaf" cx="600" cy="2900" r="6" fill="url(#leafGradient)" stroke="#16a34a" stroke-width="1.5"><title>b0d0692: fix: PNG-first icon extraction with .ico fallback for corrupt group_icons</title></circle>
    <circle class="commit-leaf" cx="600" cy="2940" r="6" fill="url(#leafGradient)" stroke="#16a34a" stroke-width="1.5"><title>8313f51: refactor: simplify icon extraction — .ico direct, drop icotool</title></circle>
    <circle class="commit-leaf" cx="600" cy="2980" r="6" fill="url(#leafGradient)" stroke="#16a34a" stroke-width="1.5"><title>556c807: feat: global wig wrapper, auto-icon extraction for desktop shortcuts</title></circle>
    <circle class="commit-leaf" cx="600" cy="3020" r="6" fill="url(#leafGradient)" stroke="#16a34a" stroke-width="1.5"><title>f0f78f2: chore: update git tree visualisation</title></circle>
    <circle class="commit-leaf" cx="600" cy="3060" r="6" fill="url(#leafGradient)" stroke="#16a34a" stroke-width="1.5"><title>99c0884: chore: update git tree visualisation</title></circle>
    <circle class="commit-leaf" cx="600" cy="3100" r="10" fill="url(#mergeGradient)" stroke="#7c3aed" stroke-width="1.5"><title>838b9c4: Merge pull request #1 from XAOSTECH/anglicise/20260401-002733</title></circle>
    <circle class="commit-leaf" cx="-480" cy="3140" r="6" fill="url(#leafGradient)" stroke="#16a34a" stroke-width="1.5"><title>6b90c0c: chore: convert American spellings to British English</title></circle>
    <circle class="commit-leaf" cx="600" cy="3220" r="9" fill="url(#forkGradient)" stroke="#ea580c" stroke-width="1.5"><title>56414f6: chore: update CHANGELOG for v0.1.1 (re-release)</title></circle>
    <circle class="commit-leaf" cx="600" cy="3260" r="6" fill="url(#leafGradient)" stroke="#16a34a" stroke-width="1.5"><title>7a60e2a: chore(dc-init): load workflows,actions</title></circle>
    <circle class="commit-leaf" cx="600" cy="3300" r="6" fill="url(#leafGradient)" stroke="#16a34a" stroke-width="1.5"><title>6c844c9: chore(dc-init): load workflows,actions</title></circle>
    <circle class="commit-leaf" cx="600" cy="3340" r="6" fill="url(#leafGradient)" stroke="#16a34a" stroke-width="1.5"><title>9e895c3: chore(dc-init): update workflows,actions</title></circle>
    <circle class="commit-leaf" cx="600" cy="3380" r="6" fill="url(#leafGradient)" stroke="#16a34a" stroke-width="1.5"><title>ba2a231: chore(dc-init): recover interrupted update</title></circle>
    <circle class="commit-leaf" cx="600" cy="3420" r="6" fill="url(#leafGradient)" stroke="#16a34a" stroke-width="1.5"><title>d9474fe: refactor: modularise into lib/ directory</title></circle>
    <circle class="commit-leaf" cx="600" cy="3460" r="6" fill="url(#leafGradient)" stroke="#16a34a" stroke-width="1.5"><title>5f04186: chore: clean up docs</title></circle>
    <circle class="commit-leaf" cx="600" cy="3500" r="6" fill="url(#leafGradient)" stroke="#16a34a" stroke-width="1.5"><title>7c5f6f6: chore: update CHANGELOG for v0.1.1</title></circle>
    <circle class="commit-leaf" cx="600" cy="3540" r="6" fill="url(#leafGradient)" stroke="#16a34a" stroke-width="1.5"><title>730899f: Add managed prefix info and external EXE launcher command</title></circle>
    <circle class="commit-leaf" cx="600" cy="3580" r="6" fill="url(#leafGradient)" stroke="#16a34a" stroke-width="1.5"><title>ff3d29b: security: add global and command route rate limiting</title></circle>
    <circle class="commit-leaf" cx="600" cy="3620" r="6" fill="url(#leafGradient)" stroke="#16a34a" stroke-width="1.5"><title>b6ce59b: chore(dc-init): update workflows and actions</title></circle>
    <circle class="commit-leaf" cx="600" cy="3660" r="6" fill="url(#leafGradient)" stroke="#16a34a" stroke-width="1.5"><title>d3a6357: gc-init</title></circle>
    <circle class="commit-leaf" cx="600" cy="3700" r="6" fill="url(#tagGradient)" stroke="#0284c7" stroke-width="1.5"><title>4854ca9: Init</title></circle>
  </g>
  
  <!-- Legend -->
  <g id="legend" transform="translate(20, 20)">
    <rect width="200" height="110" fill="white" stroke="#cbd5e1" stroke-width="1" rx="4"/>
    <circle cx="20" cy="25" r="5" fill="url(#leafGradient)" stroke="#16a34a"/>
    <text x="32" y="30" class="branch-label" font-size="12">Regular Commit</text>
    <circle cx="20" cy="50" r="6" fill="url(#mergeGradient)" stroke="#7c3aed"/>
    <text x="32" y="55" class="branch-label" font-size="12">Merge Commit</text>
    <circle cx="20" cy="75" r="6" fill="url(#forkGradient)" stroke="#ea580c"/>
    <text x="32" y="80" class="branch-label" font-size="12">Fork Point</text>
    <circle cx="20" cy="100" r="6" fill="url(#tagGradient)" stroke="#0284c7"/>
    <text x="32" y="105" class="branch-label" font-size="12">Tagged</text>
  </g>
  
  <!-- Repository info -->
  <g id="info" transform="translate(20, 3780)">
    <text x="0" y="0" class="branch-label" font-size="12" fill="#666">
      Repository: wine-gaming
    </text>
    <text x="0" y="20" class="branch-label" font-size="10" fill="#999">
      Generated: 2026-08-17 00:53:04 UTC
    </text>
  </g>
</svg>
