<?xml version="1.0" encoding="UTF-8"?>
<svg xmlns="http://www.w3.org/2000/svg"
     width="300" height="398"
     viewBox="-500 40 2200 2920">
  <style>
    @keyframes sway {
      0%   { transform: translateX(0); }
      25%  { transform: translateX(3px); }
      50%  { transform: translateX(-2px); }
      75%  { transform: translateX(4px); }
      100% { transform: translateX(0); }
    }
    .mini-node { animation: sway 4s ease-in-out infinite; }
    .mini-line { stroke-width: 1.5; fill: none; opacity: 0.5; }
  </style>
  <rect width="100%" height="100%" fill="#0a0a1a" rx="6"/>
  <g class="mini-node">
    <line class="mini-line" stroke="#4ade80" x1="600" y1="60" x2="600" y2="100"/>
    <line class="mini-line" stroke="#4ade80" x1="600" y1="100" x2="600" y2="140"/>
    <line class="mini-line" stroke="#4ade80" x1="600" y1="140" x2="600" y2="180"/>
    <line class="mini-line" stroke="#4ade80" x1="600" y1="180" x2="600" y2="220"/>
    <line class="mini-line" stroke="#4ade80" x1="600" y1="220" x2="600" y2="260"/>
    <line class="mini-line" stroke="#4ade80" x1="600" y1="260" x2="600" y2="300"/>
    <line class="mini-line" stroke="#4ade80" x1="600" y1="300" x2="600" y2="340"/>
    <line class="mini-line" stroke="#4ade80" x1="600" y1="340" x2="600" y2="380"/>
    <line class="mini-line" stroke="#4ade80" x1="600" y1="380" x2="600" y2="420"/>
    <line class="mini-line" stroke="#4ade80" x1="600" y1="420" x2="600" y2="460"/>
    <line class="mini-line" stroke="#4ade80" x1="600" y1="460" x2="600" y2="500"/>
    <line class="mini-line" stroke="#4ade80" x1="600" y1="500" x2="600" y2="540"/>
    <line class="mini-line" stroke="#4ade80" x1="600" y1="540" x2="600" y2="580"/>
    <line class="mini-line" stroke="#4ade80" x1="600" y1="580" x2="600" y2="1900"/>
    <path class="mini-line" stroke="#64748b" d="M 720 620 C 720 652, 480 668, 480 700"/>
    <path class="mini-line" stroke="#64748b" d="M 480 700 C 480 732, 840 748, 840 780"/>
    <path class="mini-line" stroke="#64748b" d="M 840 780 C 840 812, 360 828, 360 860"/>
    <path class="mini-line" stroke="#64748b" d="M 360 860 C 360 892, 960 908, 960 940"/>
    <path class="mini-line" stroke="#64748b" d="M 960 940 C 960 972, 240 988, 240 1020"/>
    <path class="mini-line" stroke="#64748b" d="M 240 1020 C 240 1052, 1080 1068, 1080 1100"/>
    <path class="mini-line" stroke="#64748b" d="M 1080 1100 C 1080 1132, 120 1148, 120 1180"/>
    <path class="mini-line" stroke="#64748b" d="M 120 1180 C 120 1212, 1200 1228, 1200 1260"/>
    <path class="mini-line" stroke="#64748b" d="M 1200 1260 C 1200 1292, 0 1308, 0 1340"/>
    <path class="mini-line" stroke="#64748b" d="M 0 1340 C 0 1372, 1320 1388, 1320 1420"/>
    <path class="mini-line" stroke="#64748b" d="M 1320 1420 C 1320 1452, -120 1468, -120 1500"/>
    <path class="mini-line" stroke="#64748b" d="M -120 1500 C -120 1532, 1440 1548, 1440 1580"/>
    <path class="mini-line" stroke="#64748b" d="M 1440 1580 C 1440 1612, -240 1628, -240 1660"/>
    <path class="mini-line" stroke="#64748b" d="M -240 1660 C -240 1692, 1560 1708, 1560 1740"/>
    <path class="mini-line" stroke="#64748b" d="M 1560 1740 C 1560 1772, -360 1788, -360 1820"/>
    <path class="mini-line" stroke="#64748b" d="M -360 1820 C -360 1852, 600 1868, 600 1900"/>
    <line class="mini-line" stroke="#4ade80" x1="600" y1="1900" x2="600" y2="2020"/>
    <path class="mini-line" stroke="#64748b" d="M 600 1900 C 600 1916, 1680 1924, 1680 1940"/>
    <path class="mini-line" stroke="#64748b" d="M 1680 1940 C 1680 1972, 600 1988, 600 2020"/>
    <line class="mini-line" stroke="#4ade80" x1="600" y1="2020" x2="600" y2="2060"/>
    <line class="mini-line" stroke="#4ade80" x1="600" y1="2060" x2="600" y2="2100"/>
    <line class="mini-line" stroke="#4ade80" x1="600" y1="2100" x2="600" y2="2140"/>
    <line class="mini-line" stroke="#4ade80" x1="600" y1="2140" x2="600" y2="2180"/>
    <line class="mini-line" stroke="#4ade80" x1="600" y1="2180" x2="600" y2="2220"/>
    <line class="mini-line" stroke="#4ade80" x1="600" y1="2220" x2="600" y2="2260"/>
    <line class="mini-line" stroke="#4ade80" x1="600" y1="2260" x2="600" y2="2300"/>
    <line class="mini-line" stroke="#4ade80" x1="600" y1="2300" x2="600" y2="2340"/>
    <line class="mini-line" stroke="#4ade80" x1="600" y1="2340" x2="600" y2="2460"/>
    <path class="mini-line" stroke="#64748b" d="M 600 2340 C 600 2356, -480 2364, -480 2380"/>
    <path class="mini-line" stroke="#64748b" d="M -480 2380 C -480 2412, 600 2428, 600 2460"/>
    <line class="mini-line" stroke="#4ade80" x1="600" y1="2460" x2="600" y2="2500"/>
    <line class="mini-line" stroke="#4ade80" x1="600" y1="2500" x2="600" y2="2540"/>
    <line class="mini-line" stroke="#4ade80" x1="600" y1="2540" x2="600" y2="2580"/>
    <line class="mini-line" stroke="#4ade80" x1="600" y1="2580" x2="600" y2="2620"/>
    <line class="mini-line" stroke="#4ade80" x1="600" y1="2620" x2="600" y2="2660"/>
    <line class="mini-line" stroke="#4ade80" x1="600" y1="2660" x2="600" y2="2700"/>
    <line class="mini-line" stroke="#4ade80" x1="600" y1="2700" x2="600" y2="2740"/>
    <line class="mini-line" stroke="#4ade80" x1="600" y1="2740" x2="600" y2="2780"/>
    <line class="mini-line" stroke="#4ade80" x1="600" y1="2780" x2="600" y2="2820"/>
    <line class="mini-line" stroke="#4ade80" x1="600" y1="2820" x2="600" y2="2860"/>
    <line class="mini-line" stroke="#4ade80" x1="600" y1="2860" x2="600" y2="2900"/>
    <line class="mini-line" stroke="#4ade80" x1="600" y1="2900" x2="600" y2="2940"/>
    <circle cx="600" cy="60" r="4" fill="#4ade80" opacity="0.9"/>
    <circle cx="600" cy="100" r="4" fill="#4ade80" opacity="0.9"/>
    <circle cx="600" cy="140" r="4" fill="#4ade80" opacity="0.9"/>
    <circle cx="600" cy="180" r="4" fill="#4ade80" opacity="0.9"/>
    <circle cx="600" cy="220" r="4" fill="#4ade80" opacity="0.9"/>
    <circle cx="600" cy="260" r="4" fill="#4ade80" opacity="0.9"/>
    <circle cx="600" cy="300" r="4" fill="#4ade80" opacity="0.9"/>
    <circle cx="600" cy="340" r="4" fill="#4ade80" opacity="0.9"/>
    <circle cx="600" cy="380" r="4" fill="#4ade80" opacity="0.9"/>
    <circle cx="600" cy="420" r="4" fill="#4ade80" opacity="0.9"/>
    <circle cx="600" cy="460" r="4" fill="#4ade80" opacity="0.9"/>
    <circle cx="600" cy="500" r="4" fill="#4ade80" opacity="0.9"/>
    <circle cx="600" cy="540" r="4" fill="#4ade80" opacity="0.9"/>
    <circle cx="600" cy="580" r="4" fill="#4ade80" opacity="0.9"/>
    <circle cx="720" cy="620" r="4" fill="#4ade80" opacity="0.9"/>
    <circle cx="480" cy="700" r="4" fill="#4ade80" opacity="0.9"/>
    <circle cx="840" cy="780" r="4" fill="#4ade80" opacity="0.9"/>
    <circle cx="360" cy="860" r="4" fill="#4ade80" opacity="0.9"/>
    <circle cx="960" cy="940" r="4" fill="#4ade80" opacity="0.9"/>
    <circle cx="240" cy="1020" r="4" fill="#4ade80" opacity="0.9"/>
    <circle cx="1080" cy="1100" r="4" fill="#4ade80" opacity="0.9"/>
    <circle cx="120" cy="1180" r="4" fill="#4ade80" opacity="0.9"/>
    <circle cx="1200" cy="1260" r="4" fill="#4ade80" opacity="0.9"/>
    <circle cx="0" cy="1340" r="4" fill="#4ade80" opacity="0.9"/>
    <circle cx="1320" cy="1420" r="4" fill="#4ade80" opacity="0.9"/>
    <circle cx="-120" cy="1500" r="4" fill="#4ade80" opacity="0.9"/>
    <circle cx="1440" cy="1580" r="4" fill="#4ade80" opacity="0.9"/>
    <circle cx="-240" cy="1660" r="4" fill="#4ade80" opacity="0.9"/>
    <circle cx="1560" cy="1740" r="4" fill="#4ade80" opacity="0.9"/>
    <circle cx="-360" cy="1820" r="4" fill="#4ade80" opacity="0.9"/>
    <circle cx="600" cy="1900" r="7" fill="#c084fc" opacity="0.9"/>
    <circle cx="1680" cy="1940" r="4" fill="#4ade80" opacity="0.9"/>
    <circle cx="600" cy="2020" r="6" fill="#fb923c" opacity="0.9"/>
    <circle cx="600" cy="2060" r="4" fill="#4ade80" opacity="0.9"/>
    <circle cx="600" cy="2100" r="4" fill="#4ade80" opacity="0.9"/>
    <circle cx="600" cy="2140" r="4" fill="#4ade80" opacity="0.9"/>
    <circle cx="600" cy="2180" r="4" fill="#4ade80" opacity="0.9"/>
    <circle cx="600" cy="2220" r="4" fill="#4ade80" opacity="0.9"/>
    <circle cx="600" cy="2260" r="4" fill="#4ade80" opacity="0.9"/>
    <circle cx="600" cy="2300" r="4" fill="#4ade80" opacity="0.9"/>
    <circle cx="600" cy="2340" r="7" fill="#c084fc" opacity="0.9"/>
    <circle cx="-480" cy="2380" r="4" fill="#4ade80" opacity="0.9"/>
    <circle cx="600" cy="2460" r="6" fill="#fb923c" opacity="0.9"/>
    <circle cx="600" cy="2500" r="4" fill="#4ade80" opacity="0.9"/>
    <circle cx="600" cy="2540" r="4" fill="#4ade80" opacity="0.9"/>
    <circle cx="600" cy="2580" r="4" fill="#4ade80" opacity="0.9"/>
    <circle cx="600" cy="2620" r="4" fill="#4ade80" opacity="0.9"/>
    <circle cx="600" cy="2660" r="4" fill="#4ade80" opacity="0.9"/>
    <circle cx="600" cy="2700" r="4" fill="#4ade80" opacity="0.9"/>
    <circle cx="600" cy="2740" r="4" fill="#4ade80" opacity="0.9"/>
    <circle cx="600" cy="2780" r="4" fill="#4ade80" opacity="0.9"/>
    <circle cx="600" cy="2820" r="4" fill="#4ade80" opacity="0.9"/>
    <circle cx="600" cy="2860" r="4" fill="#4ade80" opacity="0.9"/>
    <circle cx="600" cy="2900" r="4" fill="#4ade80" opacity="0.9"/>
    <circle cx="600" cy="2940" r="4" fill="#38bdf8" opacity="0.9"/>
  </g>
</svg>
