<?xml version="1.0" encoding="UTF-8"?>
<svg xmlns="http://www.w3.org/2000/svg"
     width="300" height="420"
     viewBox="-500 40 2200 3080">
  <style>
    @keyframes sway {
      0%   { transform: translateX(0); }
      25%  { transform: translateX(3px); }
      50%  { transform: translateX(-2px); }
      75%  { transform: translateX(4px); }
      100% { transform: translateX(0); }
    }
    .mini-node { animation: sway 4s ease-in-out infinite; }
    .mini-line { stroke-width: 1.5; fill: none; opacity: 0.5; }
  </style>
  <rect width="100%" height="100%" fill="#0a0a1a" rx="6"/>
  <g class="mini-node">
    <line class="mini-line" stroke="#4ade80" x1="600" y1="60" x2="600" y2="100"/>
    <line class="mini-line" stroke="#4ade80" x1="600" y1="100" x2="600" y2="140"/>
    <line class="mini-line" stroke="#4ade80" x1="600" y1="140" x2="600" y2="180"/>
    <line class="mini-line" stroke="#4ade80" x1="600" y1="180" x2="600" y2="220"/>
    <line class="mini-line" stroke="#4ade80" x1="600" y1="220" x2="600" y2="260"/>
    <line class="mini-line" stroke="#4ade80" x1="600" y1="260" x2="600" y2="300"/>
    <line class="mini-line" stroke="#4ade80" x1="600" y1="300" x2="600" y2="340"/>
    <line class="mini-line" stroke="#4ade80" x1="600" y1="340" x2="600" y2="380"/>
    <line class="mini-line" stroke="#4ade80" x1="600" y1="380" x2="600" y2="420"/>
    <line class="mini-line" stroke="#4ade80" x1="600" y1="420" x2="600" y2="460"/>
    <line class="mini-line" stroke="#4ade80" x1="600" y1="460" x2="600" y2="500"/>
    <line class="mini-line" stroke="#4ade80" x1="600" y1="500" x2="600" y2="540"/>
    <line class="mini-line" stroke="#4ade80" x1="600" y1="540" x2="600" y2="580"/>
    <line class="mini-line" stroke="#4ade80" x1="600" y1="580" x2="600" y2="620"/>
    <line class="mini-line" stroke="#4ade80" x1="600" y1="620" x2="600" y2="660"/>
    <line class="mini-line" stroke="#4ade80" x1="600" y1="660" x2="600" y2="700"/>
    <line class="mini-line" stroke="#4ade80" x1="600" y1="700" x2="600" y2="740"/>
    <line class="mini-line" stroke="#4ade80" x1="600" y1="740" x2="600" y2="2060"/>
    <path class="mini-line" stroke="#64748b" d="M 720 780 C 720 812, 480 828, 480 860"/>
    <path class="mini-line" stroke="#64748b" d="M 480 860 C 480 892, 840 908, 840 940"/>
    <path class="mini-line" stroke="#64748b" d="M 840 940 C 840 972, 360 988, 360 1020"/>
    <path class="mini-line" stroke="#64748b" d="M 360 1020 C 360 1052, 960 1068, 960 1100"/>
    <path class="mini-line" stroke="#64748b" d="M 960 1100 C 960 1132, 240 1148, 240 1180"/>
    <path class="mini-line" stroke="#64748b" d="M 240 1180 C 240 1212, 1080 1228, 1080 1260"/>
    <path class="mini-line" stroke="#64748b" d="M 1080 1260 C 1080 1292, 120 1308, 120 1340"/>
    <path class="mini-line" stroke="#64748b" d="M 120 1340 C 120 1372, 1200 1388, 1200 1420"/>
    <path class="mini-line" stroke="#64748b" d="M 1200 1420 C 1200 1452, 0 1468, 0 1500"/>
    <path class="mini-line" stroke="#64748b" d="M 0 1500 C 0 1532, 1320 1548, 1320 1580"/>
    <path class="mini-line" stroke="#64748b" d="M 1320 1580 C 1320 1612, -120 1628, -120 1660"/>
    <path class="mini-line" stroke="#64748b" d="M -120 1660 C -120 1692, 1440 1708, 1440 1740"/>
    <path class="mini-line" stroke="#64748b" d="M 1440 1740 C 1440 1772, -240 1788, -240 1820"/>
    <path class="mini-line" stroke="#64748b" d="M -240 1820 C -240 1852, 1560 1868, 1560 1900"/>
    <path class="mini-line" stroke="#64748b" d="M 1560 1900 C 1560 1932, -360 1948, -360 1980"/>
    <path class="mini-line" stroke="#64748b" d="M -360 1980 C -360 2012, 600 2028, 600 2060"/>
    <line class="mini-line" stroke="#4ade80" x1="600" y1="2060" x2="600" y2="2180"/>
    <path class="mini-line" stroke="#64748b" d="M 600 2060 C 600 2076, 1680 2084, 1680 2100"/>
    <path class="mini-line" stroke="#64748b" d="M 1680 2100 C 1680 2132, 600 2148, 600 2180"/>
    <line class="mini-line" stroke="#4ade80" x1="600" y1="2180" x2="600" y2="2220"/>
    <line class="mini-line" stroke="#4ade80" x1="600" y1="2220" x2="600" y2="2260"/>
    <line class="mini-line" stroke="#4ade80" x1="600" y1="2260" x2="600" y2="2300"/>
    <line class="mini-line" stroke="#4ade80" x1="600" y1="2300" x2="600" y2="2340"/>
    <line class="mini-line" stroke="#4ade80" x1="600" y1="2340" x2="600" y2="2380"/>
    <line class="mini-line" stroke="#4ade80" x1="600" y1="2380" x2="600" y2="2420"/>
    <line class="mini-line" stroke="#4ade80" x1="600" y1="2420" x2="600" y2="2460"/>
    <line class="mini-line" stroke="#4ade80" x1="600" y1="2460" x2="600" y2="2500"/>
    <line class="mini-line" stroke="#4ade80" x1="600" y1="2500" x2="600" y2="2620"/>
    <path class="mini-line" stroke="#64748b" d="M 600 2500 C 600 2516, -480 2524, -480 2540"/>
    <path class="mini-line" stroke="#64748b" d="M -480 2540 C -480 2572, 600 2588, 600 2620"/>
    <line class="mini-line" stroke="#4ade80" x1="600" y1="2620" x2="600" y2="2660"/>
    <line class="mini-line" stroke="#4ade80" x1="600" y1="2660" x2="600" y2="2700"/>
    <line class="mini-line" stroke="#4ade80" x1="600" y1="2700" x2="600" y2="2740"/>
    <line class="mini-line" stroke="#4ade80" x1="600" y1="2740" x2="600" y2="2780"/>
    <line class="mini-line" stroke="#4ade80" x1="600" y1="2780" x2="600" y2="2820"/>
    <line class="mini-line" stroke="#4ade80" x1="600" y1="2820" x2="600" y2="2860"/>
    <line class="mini-line" stroke="#4ade80" x1="600" y1="2860" x2="600" y2="2900"/>
    <line class="mini-line" stroke="#4ade80" x1="600" y1="2900" x2="600" y2="2940"/>
    <line class="mini-line" stroke="#4ade80" x1="600" y1="2940" x2="600" y2="2980"/>
    <line class="mini-line" stroke="#4ade80" x1="600" y1="2980" x2="600" y2="3020"/>
    <line class="mini-line" stroke="#4ade80" x1="600" y1="3020" x2="600" y2="3060"/>
    <line class="mini-line" stroke="#4ade80" x1="600" y1="3060" x2="600" y2="3100"/>
    <circle cx="600" cy="60" r="4" fill="#4ade80" opacity="0.9"/>
    <circle cx="600" cy="100" r="4" fill="#4ade80" opacity="0.9"/>
    <circle cx="600" cy="140" r="4" fill="#4ade80" opacity="0.9"/>
    <circle cx="600" cy="180" r="4" fill="#4ade80" opacity="0.9"/>
    <circle cx="600" cy="220" r="4" fill="#4ade80" opacity="0.9"/>
    <circle cx="600" cy="260" r="4" fill="#4ade80" opacity="0.9"/>
    <circle cx="600" cy="300" r="4" fill="#4ade80" opacity="0.9"/>
    <circle cx="600" cy="340" r="4" fill="#4ade80" opacity="0.9"/>
    <circle cx="600" cy="380" r="4" fill="#4ade80" opacity="0.9"/>
    <circle cx="600" cy="420" r="4" fill="#4ade80" opacity="0.9"/>
    <circle cx="600" cy="460" r="4" fill="#4ade80" opacity="0.9"/>
    <circle cx="600" cy="500" r="4" fill="#4ade80" opacity="0.9"/>
    <circle cx="600" cy="540" r="4" fill="#4ade80" opacity="0.9"/>
    <circle cx="600" cy="580" r="4" fill="#4ade80" opacity="0.9"/>
    <circle cx="600" cy="620" r="4" fill="#4ade80" opacity="0.9"/>
    <circle cx="600" cy="660" r="4" fill="#4ade80" opacity="0.9"/>
    <circle cx="600" cy="700" r="4" fill="#4ade80" opacity="0.9"/>
    <circle cx="600" cy="740" r="4" fill="#4ade80" opacity="0.9"/>
    <circle cx="720" cy="780" r="4" fill="#4ade80" opacity="0.9"/>
    <circle cx="480" cy="860" r="4" fill="#4ade80" opacity="0.9"/>
    <circle cx="840" cy="940" r="4" fill="#4ade80" opacity="0.9"/>
    <circle cx="360" cy="1020" r="4" fill="#4ade80" opacity="0.9"/>
    <circle cx="960" cy="1100" r="4" fill="#4ade80" opacity="0.9"/>
    <circle cx="240" cy="1180" r="4" fill="#4ade80" opacity="0.9"/>
    <circle cx="1080" cy="1260" r="4" fill="#4ade80" opacity="0.9"/>
    <circle cx="120" cy="1340" r="4" fill="#4ade80" opacity="0.9"/>
    <circle cx="1200" cy="1420" r="4" fill="#4ade80" opacity="0.9"/>
    <circle cx="0" cy="1500" r="4" fill="#4ade80" opacity="0.9"/>
    <circle cx="1320" cy="1580" r="4" fill="#4ade80" opacity="0.9"/>
    <circle cx="-120" cy="1660" r="4" fill="#4ade80" opacity="0.9"/>
    <circle cx="1440" cy="1740" r="4" fill="#4ade80" opacity="0.9"/>
    <circle cx="-240" cy="1820" r="4" fill="#4ade80" opacity="0.9"/>
    <circle cx="1560" cy="1900" r="4" fill="#4ade80" opacity="0.9"/>
    <circle cx="-360" cy="1980" r="4" fill="#4ade80" opacity="0.9"/>
    <circle cx="600" cy="2060" r="7" fill="#c084fc" opacity="0.9"/>
    <circle cx="1680" cy="2100" r="4" fill="#4ade80" opacity="0.9"/>
    <circle cx="600" cy="2180" r="6" fill="#fb923c" opacity="0.9"/>
    <circle cx="600" cy="2220" r="4" fill="#4ade80" opacity="0.9"/>
    <circle cx="600" cy="2260" r="4" fill="#4ade80" opacity="0.9"/>
    <circle cx="600" cy="2300" r="4" fill="#4ade80" opacity="0.9"/>
    <circle cx="600" cy="2340" r="4" fill="#4ade80" opacity="0.9"/>
    <circle cx="600" cy="2380" r="4" fill="#4ade80" opacity="0.9"/>
    <circle cx="600" cy="2420" r="4" fill="#4ade80" opacity="0.9"/>
    <circle cx="600" cy="2460" r="4" fill="#4ade80" opacity="0.9"/>
    <circle cx="600" cy="2500" r="7" fill="#c084fc" opacity="0.9"/>
    <circle cx="-480" cy="2540" r="4" fill="#4ade80" opacity="0.9"/>
    <circle cx="600" cy="2620" r="6" fill="#fb923c" opacity="0.9"/>
    <circle cx="600" cy="2660" r="4" fill="#4ade80" opacity="0.9"/>
    <circle cx="600" cy="2700" r="4" fill="#4ade80" opacity="0.9"/>
    <circle cx="600" cy="2740" r="4" fill="#4ade80" opacity="0.9"/>
    <circle cx="600" cy="2780" r="4" fill="#4ade80" opacity="0.9"/>
    <circle cx="600" cy="2820" r="4" fill="#4ade80" opacity="0.9"/>
    <circle cx="600" cy="2860" r="4" fill="#4ade80" opacity="0.9"/>
    <circle cx="600" cy="2900" r="4" fill="#4ade80" opacity="0.9"/>
    <circle cx="600" cy="2940" r="4" fill="#4ade80" opacity="0.9"/>
    <circle cx="600" cy="2980" r="4" fill="#4ade80" opacity="0.9"/>
    <circle cx="600" cy="3020" r="4" fill="#4ade80" opacity="0.9"/>
    <circle cx="600" cy="3060" r="4" fill="#4ade80" opacity="0.9"/>
    <circle cx="600" cy="3100" r="4" fill="#38bdf8" opacity="0.9"/>
  </g>
</svg>
