<?xml version="1.0" encoding="UTF-8"?>
<svg xmlns="http://www.w3.org/2000/svg"
     width="300" height="387"
     viewBox="-500 40 2200 2840">
  <style>
    @keyframes sway {
      0%   { transform: translateX(0); }
      25%  { transform: translateX(3px); }
      50%  { transform: translateX(-2px); }
      75%  { transform: translateX(4px); }
      100% { transform: translateX(0); }
    }
    .mini-node { animation: sway 4s ease-in-out infinite; }
    .mini-line { stroke-width: 1.5; fill: none; opacity: 0.5; }
  </style>
  <rect width="100%" height="100%" fill="#0a0a1a" rx="6"/>
  <g class="mini-node">
    <line class="mini-line" stroke="#4ade80" x1="600" y1="60" x2="600" y2="100"/>
    <line class="mini-line" stroke="#4ade80" x1="600" y1="100" x2="600" y2="140"/>
    <line class="mini-line" stroke="#4ade80" x1="600" y1="140" x2="600" y2="180"/>
    <line class="mini-line" stroke="#4ade80" x1="600" y1="180" x2="600" y2="220"/>
    <line class="mini-line" stroke="#4ade80" x1="600" y1="220" x2="600" y2="260"/>
    <line class="mini-line" stroke="#4ade80" x1="600" y1="260" x2="600" y2="300"/>
    <line class="mini-line" stroke="#4ade80" x1="600" y1="300" x2="600" y2="340"/>
    <line class="mini-line" stroke="#4ade80" x1="600" y1="340" x2="600" y2="380"/>
    <line class="mini-line" stroke="#4ade80" x1="600" y1="380" x2="600" y2="420"/>
    <line class="mini-line" stroke="#4ade80" x1="600" y1="420" x2="600" y2="460"/>
    <line class="mini-line" stroke="#4ade80" x1="600" y1="460" x2="600" y2="500"/>
    <line class="mini-line" stroke="#4ade80" x1="600" y1="500" x2="600" y2="1820"/>
    <path class="mini-line" stroke="#64748b" d="M 720 540 C 720 572, 480 588, 480 620"/>
    <path class="mini-line" stroke="#64748b" d="M 480 620 C 480 652, 840 668, 840 700"/>
    <path class="mini-line" stroke="#64748b" d="M 840 700 C 840 732, 360 748, 360 780"/>
    <path class="mini-line" stroke="#64748b" d="M 360 780 C 360 812, 960 828, 960 860"/>
    <path class="mini-line" stroke="#64748b" d="M 960 860 C 960 892, 240 908, 240 940"/>
    <path class="mini-line" stroke="#64748b" d="M 240 940 C 240 972, 1080 988, 1080 1020"/>
    <path class="mini-line" stroke="#64748b" d="M 1080 1020 C 1080 1052, 120 1068, 120 1100"/>
    <path class="mini-line" stroke="#64748b" d="M 120 1100 C 120 1132, 1200 1148, 1200 1180"/>
    <path class="mini-line" stroke="#64748b" d="M 1200 1180 C 1200 1212, 0 1228, 0 1260"/>
    <path class="mini-line" stroke="#64748b" d="M 0 1260 C 0 1292, 1320 1308, 1320 1340"/>
    <path class="mini-line" stroke="#64748b" d="M 1320 1340 C 1320 1372, -120 1388, -120 1420"/>
    <path class="mini-line" stroke="#64748b" d="M -120 1420 C -120 1452, 1440 1468, 1440 1500"/>
    <path class="mini-line" stroke="#64748b" d="M 1440 1500 C 1440 1532, -240 1548, -240 1580"/>
    <path class="mini-line" stroke="#64748b" d="M -240 1580 C -240 1612, 1560 1628, 1560 1660"/>
    <path class="mini-line" stroke="#64748b" d="M 1560 1660 C 1560 1692, -360 1708, -360 1740"/>
    <path class="mini-line" stroke="#64748b" d="M -360 1740 C -360 1772, 600 1788, 600 1820"/>
    <line class="mini-line" stroke="#4ade80" x1="600" y1="1820" x2="600" y2="1940"/>
    <path class="mini-line" stroke="#64748b" d="M 600 1820 C 600 1836, 1680 1844, 1680 1860"/>
    <path class="mini-line" stroke="#64748b" d="M 1680 1860 C 1680 1892, 600 1908, 600 1940"/>
    <line class="mini-line" stroke="#4ade80" x1="600" y1="1940" x2="600" y2="1980"/>
    <line class="mini-line" stroke="#4ade80" x1="600" y1="1980" x2="600" y2="2020"/>
    <line class="mini-line" stroke="#4ade80" x1="600" y1="2020" x2="600" y2="2060"/>
    <line class="mini-line" stroke="#4ade80" x1="600" y1="2060" x2="600" y2="2100"/>
    <line class="mini-line" stroke="#4ade80" x1="600" y1="2100" x2="600" y2="2140"/>
    <line class="mini-line" stroke="#4ade80" x1="600" y1="2140" x2="600" y2="2180"/>
    <line class="mini-line" stroke="#4ade80" x1="600" y1="2180" x2="600" y2="2220"/>
    <line class="mini-line" stroke="#4ade80" x1="600" y1="2220" x2="600" y2="2260"/>
    <line class="mini-line" stroke="#4ade80" x1="600" y1="2260" x2="600" y2="2380"/>
    <path class="mini-line" stroke="#64748b" d="M 600 2260 C 600 2276, -480 2284, -480 2300"/>
    <path class="mini-line" stroke="#64748b" d="M -480 2300 C -480 2332, 600 2348, 600 2380"/>
    <line class="mini-line" stroke="#4ade80" x1="600" y1="2380" x2="600" y2="2420"/>
    <line class="mini-line" stroke="#4ade80" x1="600" y1="2420" x2="600" y2="2460"/>
    <line class="mini-line" stroke="#4ade80" x1="600" y1="2460" x2="600" y2="2500"/>
    <line class="mini-line" stroke="#4ade80" x1="600" y1="2500" x2="600" y2="2540"/>
    <line class="mini-line" stroke="#4ade80" x1="600" y1="2540" x2="600" y2="2580"/>
    <line class="mini-line" stroke="#4ade80" x1="600" y1="2580" x2="600" y2="2620"/>
    <line class="mini-line" stroke="#4ade80" x1="600" y1="2620" x2="600" y2="2660"/>
    <line class="mini-line" stroke="#4ade80" x1="600" y1="2660" x2="600" y2="2700"/>
    <line class="mini-line" stroke="#4ade80" x1="600" y1="2700" x2="600" y2="2740"/>
    <line class="mini-line" stroke="#4ade80" x1="600" y1="2740" x2="600" y2="2780"/>
    <line class="mini-line" stroke="#4ade80" x1="600" y1="2780" x2="600" y2="2820"/>
    <line class="mini-line" stroke="#4ade80" x1="600" y1="2820" x2="600" y2="2860"/>
    <circle cx="600" cy="60" r="4" fill="#4ade80" opacity="0.9"/>
    <circle cx="600" cy="100" r="4" fill="#4ade80" opacity="0.9"/>
    <circle cx="600" cy="140" r="4" fill="#4ade80" opacity="0.9"/>
    <circle cx="600" cy="180" r="4" fill="#4ade80" opacity="0.9"/>
    <circle cx="600" cy="220" r="4" fill="#4ade80" opacity="0.9"/>
    <circle cx="600" cy="260" r="4" fill="#4ade80" opacity="0.9"/>
    <circle cx="600" cy="300" r="4" fill="#4ade80" opacity="0.9"/>
    <circle cx="600" cy="340" r="4" fill="#4ade80" opacity="0.9"/>
    <circle cx="600" cy="380" r="4" fill="#4ade80" opacity="0.9"/>
    <circle cx="600" cy="420" r="4" fill="#4ade80" opacity="0.9"/>
    <circle cx="600" cy="460" r="4" fill="#4ade80" opacity="0.9"/>
    <circle cx="600" cy="500" r="4" fill="#4ade80" opacity="0.9"/>
    <circle cx="720" cy="540" r="4" fill="#4ade80" opacity="0.9"/>
    <circle cx="480" cy="620" r="4" fill="#4ade80" opacity="0.9"/>
    <circle cx="840" cy="700" r="4" fill="#4ade80" opacity="0.9"/>
    <circle cx="360" cy="780" r="4" fill="#4ade80" opacity="0.9"/>
    <circle cx="960" cy="860" r="4" fill="#4ade80" opacity="0.9"/>
    <circle cx="240" cy="940" r="4" fill="#4ade80" opacity="0.9"/>
    <circle cx="1080" cy="1020" r="4" fill="#4ade80" opacity="0.9"/>
    <circle cx="120" cy="1100" r="4" fill="#4ade80" opacity="0.9"/>
    <circle cx="1200" cy="1180" r="4" fill="#4ade80" opacity="0.9"/>
    <circle cx="0" cy="1260" r="4" fill="#4ade80" opacity="0.9"/>
    <circle cx="1320" cy="1340" r="4" fill="#4ade80" opacity="0.9"/>
    <circle cx="-120" cy="1420" r="4" fill="#4ade80" opacity="0.9"/>
    <circle cx="1440" cy="1500" r="4" fill="#4ade80" opacity="0.9"/>
    <circle cx="-240" cy="1580" r="4" fill="#4ade80" opacity="0.9"/>
    <circle cx="1560" cy="1660" r="4" fill="#4ade80" opacity="0.9"/>
    <circle cx="-360" cy="1740" r="4" fill="#4ade80" opacity="0.9"/>
    <circle cx="600" cy="1820" r="7" fill="#c084fc" opacity="0.9"/>
    <circle cx="1680" cy="1860" r="4" fill="#4ade80" opacity="0.9"/>
    <circle cx="600" cy="1940" r="6" fill="#fb923c" opacity="0.9"/>
    <circle cx="600" cy="1980" r="4" fill="#4ade80" opacity="0.9"/>
    <circle cx="600" cy="2020" r="4" fill="#4ade80" opacity="0.9"/>
    <circle cx="600" cy="2060" r="4" fill="#4ade80" opacity="0.9"/>
    <circle cx="600" cy="2100" r="4" fill="#4ade80" opacity="0.9"/>
    <circle cx="600" cy="2140" r="4" fill="#4ade80" opacity="0.9"/>
    <circle cx="600" cy="2180" r="4" fill="#4ade80" opacity="0.9"/>
    <circle cx="600" cy="2220" r="4" fill="#4ade80" opacity="0.9"/>
    <circle cx="600" cy="2260" r="7" fill="#c084fc" opacity="0.9"/>
    <circle cx="-480" cy="2300" r="4" fill="#4ade80" opacity="0.9"/>
    <circle cx="600" cy="2380" r="6" fill="#fb923c" opacity="0.9"/>
    <circle cx="600" cy="2420" r="4" fill="#4ade80" opacity="0.9"/>
    <circle cx="600" cy="2460" r="4" fill="#4ade80" opacity="0.9"/>
    <circle cx="600" cy="2500" r="4" fill="#4ade80" opacity="0.9"/>
    <circle cx="600" cy="2540" r="4" fill="#4ade80" opacity="0.9"/>
    <circle cx="600" cy="2580" r="4" fill="#4ade80" opacity="0.9"/>
    <circle cx="600" cy="2620" r="4" fill="#4ade80" opacity="0.9"/>
    <circle cx="600" cy="2660" r="4" fill="#4ade80" opacity="0.9"/>
    <circle cx="600" cy="2700" r="4" fill="#4ade80" opacity="0.9"/>
    <circle cx="600" cy="2740" r="4" fill="#4ade80" opacity="0.9"/>
    <circle cx="600" cy="2780" r="4" fill="#4ade80" opacity="0.9"/>
    <circle cx="600" cy="2820" r="4" fill="#4ade80" opacity="0.9"/>
    <circle cx="600" cy="2860" r="4" fill="#38bdf8" opacity="0.9"/>
  </g>
</svg>
