<?xml version="1.0" encoding="UTF-8"?>
<svg xmlns="http://www.w3.org/2000/svg" 
     xmlns:xlink="http://www.w3.org/1999/xlink"
     width="2560" height="2900" 
     viewBox="0 0 2560 2900">
  <defs>
    <radialGradient id="leafGradient">
      <stop offset="0%" style="stop-color:#22c55e;stop-opacity:1" />
      <stop offset="100%" style="stop-color:#16a34a;stop-opacity:0.8" />
    </radialGradient>
    <radialGradient id="mergeGradient">
      <stop offset="0%" style="stop-color:#a78bfa;stop-opacity:1" />
      <stop offset="100%" style="stop-color:#7c3aed;stop-opacity:0.8" />
    </radialGradient>
    <radialGradient id="forkGradient">
      <stop offset="0%" style="stop-color:#fb923c;stop-opacity:1" />
      <stop offset="100%" style="stop-color:#ea580c;stop-opacity:0.8" />
    </radialGradient>
    <radialGradient id="tagGradient">
      <stop offset="0%" style="stop-color:#38bdf8;stop-opacity:1" />
      <stop offset="100%" style="stop-color:#0284c7;stop-opacity:0.8" />
    </radialGradient>
    <style>
      .branch-line { stroke: #64748b; stroke-width: 2; fill: none; opacity: 0.7; }
      .trunk-line { stroke: #22c55e; stroke-width: 2.5; fill: none; opacity: 0.6; }
      .commit-leaf { cursor: pointer; }
      .commit-leaf:hover { filter: brightness(1.5); }
      .branch-label { font-family: sans-serif; font-size: 12px; font-weight: bold; fill: #0f172a; }
    </style>
  </defs>
  
  <rect width="2560" height="2900" fill="#f8fafc"/>
  <defs>
    <pattern id="grid" width="100" height="100" patternUnits="userSpaceOnUse">
      <path d="M 100 0 L 0 0 0 100" fill="none" stroke="#e2e8f0" stroke-width="0.5" opacity="0.3"/>
    </pattern>
  </defs>
  <rect width="2560" height="2900" fill="url(#grid)"/>
  
  <!-- Branch connection lines -->
  <g id="branches">
    <line class="trunk-line" x1="600" y1="60" x2="600" y2="100"/>
    <line class="trunk-line" x1="600" y1="100" x2="600" y2="140"/>
    <line class="trunk-line" x1="600" y1="140" x2="600" y2="180"/>
    <line class="trunk-line" x1="600" y1="180" x2="600" y2="220"/>
    <line class="trunk-line" x1="600" y1="220" x2="600" y2="260"/>
    <line class="trunk-line" x1="600" y1="260" x2="600" y2="300"/>
    <line class="trunk-line" x1="600" y1="300" x2="600" y2="340"/>
    <line class="trunk-line" x1="600" y1="340" x2="600" y2="380"/>
    <line class="trunk-line" x1="600" y1="380" x2="600" y2="420"/>
    <line class="trunk-line" x1="600" y1="420" x2="600" y2="1740"/>
    <path class="branch-line" d="M 720 460 C 720 492, 480 508, 480 540"/>
    <path class="branch-line" d="M 480 540 C 480 572, 840 588, 840 620"/>
    <path class="branch-line" d="M 840 620 C 840 652, 360 668, 360 700"/>
    <path class="branch-line" d="M 360 700 C 360 732, 960 748, 960 780"/>
    <path class="branch-line" d="M 960 780 C 960 812, 240 828, 240 860"/>
    <path class="branch-line" d="M 240 860 C 240 892, 1080 908, 1080 940"/>
    <path class="branch-line" d="M 1080 940 C 1080 972, 120 988, 120 1020"/>
    <path class="branch-line" d="M 120 1020 C 120 1052, 1200 1068, 1200 1100"/>
    <path class="branch-line" d="M 1200 1100 C 1200 1132, 0 1148, 0 1180"/>
    <path class="branch-line" d="M 0 1180 C 0 1212, 1320 1228, 1320 1260"/>
    <path class="branch-line" d="M 1320 1260 C 1320 1292, -120 1308, -120 1340"/>
    <path class="branch-line" d="M -120 1340 C -120 1372, 1440 1388, 1440 1420"/>
    <path class="branch-line" d="M 1440 1420 C 1440 1452, -240 1468, -240 1500"/>
    <path class="branch-line" d="M -240 1500 C -240 1532, 1560 1548, 1560 1580"/>
    <path class="branch-line" d="M 1560 1580 C 1560 1612, -360 1628, -360 1660"/>
    <path class="branch-line" d="M -360 1660 C -360 1692, 600 1708, 600 1740"/>
    <line class="trunk-line" x1="600" y1="1740" x2="600" y2="1860"/>
    <path class="branch-line" d="M 600 1740 C 600 1756, 1680 1764, 1680 1780"/>
    <path class="branch-line" d="M 1680 1780 C 1680 1812, 600 1828, 600 1860"/>
    <line class="trunk-line" x1="600" y1="1860" x2="600" y2="1900"/>
    <line class="trunk-line" x1="600" y1="1900" x2="600" y2="1940"/>
    <line class="trunk-line" x1="600" y1="1940" x2="600" y2="1980"/>
    <line class="trunk-line" x1="600" y1="1980" x2="600" y2="2020"/>
    <line class="trunk-line" x1="600" y1="2020" x2="600" y2="2060"/>
    <line class="trunk-line" x1="600" y1="2060" x2="600" y2="2100"/>
    <line class="trunk-line" x1="600" y1="2100" x2="600" y2="2140"/>
    <line class="trunk-line" x1="600" y1="2140" x2="600" y2="2180"/>
    <line class="trunk-line" x1="600" y1="2180" x2="600" y2="2300"/>
    <path class="branch-line" d="M 600 2180 C 600 2196, -480 2204, -480 2220"/>
    <path class="branch-line" d="M -480 2220 C -480 2252, 600 2268, 600 2300"/>
    <line class="trunk-line" x1="600" y1="2300" x2="600" y2="2340"/>
    <line class="trunk-line" x1="600" y1="2340" x2="600" y2="2380"/>
    <line class="trunk-line" x1="600" y1="2380" x2="600" y2="2420"/>
    <line class="trunk-line" x1="600" y1="2420" x2="600" y2="2460"/>
    <line class="trunk-line" x1="600" y1="2460" x2="600" y2="2500"/>
    <line class="trunk-line" x1="600" y1="2500" x2="600" y2="2540"/>
    <line class="trunk-line" x1="600" y1="2540" x2="600" y2="2580"/>
    <line class="trunk-line" x1="600" y1="2580" x2="600" y2="2620"/>
    <line class="trunk-line" x1="600" y1="2620" x2="600" y2="2660"/>
    <line class="trunk-line" x1="600" y1="2660" x2="600" y2="2700"/>
    <line class="trunk-line" x1="600" y1="2700" x2="600" y2="2740"/>
    <line class="trunk-line" x1="600" y1="2740" x2="600" y2="2780"/>
  </g>
  <!-- Commit nodes -->
  <g id="commits">
    <circle class="commit-leaf" cx="600" cy="60" r="6" fill="url(#leafGradient)" stroke="#16a34a" stroke-width="1.5"><title>b5b27a9: chore: update CHANGELOG for v0.1.1 (re-release)</title></circle>
    <circle class="commit-leaf" cx="600" cy="100" r="6" fill="url(#leafGradient)" stroke="#16a34a" stroke-width="1.5"><title>e7cff5f: feat(profile): --profile flag for launch and install-shortcut</title></circle>
    <circle class="commit-leaf" cx="600" cy="140" r="6" fill="url(#leafGradient)" stroke="#16a34a" stroke-width="1.5"><title>a52b8ea: feat(registry): user app registry with optional launcher grouping; wig add/remove</title></circle>
    <circle class="commit-leaf" cx="600" cy="180" r="6" fill="url(#leafGradient)" stroke="#16a34a" stroke-width="1.5"><title>879eb5b: refactor(profile): move profiles to XDG_CONFIG_HOME with auto-migration</title></circle>
    <circle class="commit-leaf" cx="600" cy="220" r="6" fill="url(#leafGradient)" stroke="#16a34a" stroke-width="1.5"><title>ba4452d: fix(init): split winetricks into per-verb passes with progress; stream heavy verbs</title></circle>
    <circle class="commit-leaf" cx="600" cy="260" r="6" fill="url(#leafGradient)" stroke="#16a34a" stroke-width="1.5"><title>d72fed8: feat: install gamemode/mangohud via apt; add install-shortcut all</title></circle>
    <circle class="commit-leaf" cx="600" cy="300" r="6" fill="url(#leafGradient)" stroke="#16a34a" stroke-width="1.5"><title>858067d: feat(profile): per-launcher launch profiles for FPS cap, HUD, FSR, NVAPI, gamemode</title></circle>
    <circle class="commit-leaf" cx="600" cy="340" r="6" fill="url(#leafGradient)" stroke="#16a34a" stroke-width="1.5"><title>f150135: fix: send log helpers to stderr; drop chromium flags; redirect proton output</title></circle>
    <circle class="commit-leaf" cx="600" cy="380" r="6" fill="url(#leafGradient)" stroke="#16a34a" stroke-width="1.5"><title>bd78834: fix(legacy-games): update install paths</title></circle>
    <circle class="commit-leaf" cx="600" cy="420" r="6" fill="url(#leafGradient)" stroke="#16a34a" stroke-width="1.5"><title>0355d35: fix(amazon-games): update download link and install paths</title></circle>
    <circle class="commit-leaf" cx="720" cy="460" r="6" fill="url(#leafGradient)" stroke="#16a34a" stroke-width="1.5"><title>2910c99: experiment(xbox): iter 10 — add HTTPS/auth trace channels</title></circle>
    <circle class="commit-leaf" cx="480" cy="540" r="6" fill="url(#leafGradient)" stroke="#16a34a" stroke-width="1.5"><title>dfebc00: experiment(xbox): iter 9d — fix trap loop, add error-event reporting</title></circle>
    <circle class="commit-leaf" cx="840" cy="620" r="6" fill="url(#leafGradient)" stroke="#16a34a" stroke-width="1.5"><title>38c6f70: experiment(xbox): iter 9c — bypass wig in trace mode</title></circle>
    <circle class="commit-leaf" cx="360" cy="700" r="6" fill="url(#leafGradient)" stroke="#16a34a" stroke-width="1.5"><title>daf1ae9: experiment(xbox): iter 9b — fix tracer to read Proton log</title></circle>
    <circle class="commit-leaf" cx="960" cy="780" r="6" fill="url(#leafGradient)" stroke="#16a34a" stroke-width="1.5"><title>044d8d3: experiment(xbox): iter 9 — opt-in service-query tracer</title></circle>
    <circle class="commit-leaf" cx="240" cy="860" r="6" fill="url(#leafGradient)" stroke="#16a34a" stroke-width="1.5"><title>509c00b: experiment(xbox): iter 8 — PackageVolume stub</title></circle>
    <circle class="commit-leaf" cx="1080" cy="940" r="6" fill="url(#leafGradient)" stroke="#16a34a" stroke-width="1.5"><title>1a6b03d: experiment(xbox): iter 7 — AnalyticsVersionInfo stub + download tracer</title></circle>
    <circle class="commit-leaf" cx="120" cy="1020" r="6" fill="url(#leafGradient)" stroke="#16a34a" stroke-width="1.5"><title>d962508: experiment(xbox): iter 6 — fix PackageManager signatures, return empty enumerables</title></circle>
    <circle class="commit-leaf" cx="1200" cy="1100" r="6" fill="url(#leafGradient)" stroke="#16a34a" stroke-width="1.5"><title>380a279: experiment(xbox): iter 5 (final) — Package + AnalyticsInfo stubs + conclusion</title></circle>
    <circle class="commit-leaf" cx="0" cy="1180" r="6" fill="url(#leafGradient)" stroke="#16a34a" stroke-width="1.5"><title>4e4d62c: experiment(xbox): iter 4 — TypedEventHandler + PackageManager (the MSIX wall)</title></circle>
    <circle class="commit-leaf" cx="1320" cy="1260" r="6" fill="url(#leafGradient)" stroke="#16a34a" stroke-width="1.5"><title>548abda: fix(xbox-stub): make native GAC optional, add Wine-Mono GAC path</title></circle>
    <circle class="commit-leaf" cx="-120" cy="1340" r="6" fill="url(#leafGradient)" stroke="#16a34a" stroke-width="1.5"><title>2e41761: fix(xbox-stub): awk skipped real .assembly because '.assembly extern' matched first</title></circle>
    <circle class="commit-leaf" cx="1440" cy="1420" r="6" fill="url(#leafGradient)" stroke="#16a34a" stroke-width="1.5"><title>759a5c6: experiment(xbox): iter 3 — multi-stub build, add FoundationContract</title></circle>
    <circle class="commit-leaf" cx="-240" cy="1500" r="6" fill="url(#leafGradient)" stroke="#16a34a" stroke-width="1.5"><title>613638f: chore(xbox): gitignore built stub dll, untrack stale artifact</title></circle>
    <circle class="commit-leaf" cx="1560" cy="1580" r="6" fill="url(#leafGradient)" stroke="#16a34a" stroke-width="1.5"><title>0a5787c: experiment(xbox): iter 2 — define UISettings skeleton in WinRT stub</title></circle>
    <circle class="commit-leaf" cx="-360" cy="1660" r="6" fill="url(#leafGradient)" stroke="#16a34a" stroke-width="1.5"><title>6a7d91c: experiment(xbox): document attempts + stub WinRT contract assembly</title></circle>
    <circle class="commit-leaf" cx="600" cy="1740" r="10" fill="url(#mergeGradient)" stroke="#7c3aed" stroke-width="1.5"><title>88b253c: Merge pull request #2 from XAOSTECH/anglicise/20260415-232714</title></circle>
    <circle class="commit-leaf" cx="1680" cy="1780" r="6" fill="url(#leafGradient)" stroke="#16a34a" stroke-width="1.5"><title>7acf70f: chore: convert American spellings to British English</title></circle>
    <circle class="commit-leaf" cx="600" cy="1860" r="9" fill="url(#forkGradient)" stroke="#ea580c" stroke-width="1.5"><title>bdba0f2: chore: update CHANGELOG for v0.1.1 (re-release)</title></circle>
    <circle class="commit-leaf" cx="600" cy="1900" r="6" fill="url(#leafGradient)" stroke="#16a34a" stroke-width="1.5"><title>1f8d8fb: fix(init): notice on re-run when prefix exists, suppress wineboot stderr noise</title></circle>
    <circle class="commit-leaf" cx="600" cy="1940" r="6" fill="url(#leafGradient)" stroke="#16a34a" stroke-width="1.5"><title>2a4a94b: chore(readme): document wig global command, icon extraction, new commands, directories, v1.1 changelog</title></circle>
    <circle class="commit-leaf" cx="600" cy="1980" r="6" fill="url(#leafGradient)" stroke="#16a34a" stroke-width="1.5"><title>b0d0692: fix: PNG-first icon extraction with .ico fallback for corrupt group_icons</title></circle>
    <circle class="commit-leaf" cx="600" cy="2020" r="6" fill="url(#leafGradient)" stroke="#16a34a" stroke-width="1.5"><title>8313f51: refactor: simplify icon extraction — .ico direct, drop icotool</title></circle>
    <circle class="commit-leaf" cx="600" cy="2060" r="6" fill="url(#leafGradient)" stroke="#16a34a" stroke-width="1.5"><title>556c807: feat: global wig wrapper, auto-icon extraction for desktop shortcuts</title></circle>
    <circle class="commit-leaf" cx="600" cy="2100" r="6" fill="url(#leafGradient)" stroke="#16a34a" stroke-width="1.5"><title>f0f78f2: chore: update git tree visualisation</title></circle>
    <circle class="commit-leaf" cx="600" cy="2140" r="6" fill="url(#leafGradient)" stroke="#16a34a" stroke-width="1.5"><title>99c0884: chore: update git tree visualisation</title></circle>
    <circle class="commit-leaf" cx="600" cy="2180" r="10" fill="url(#mergeGradient)" stroke="#7c3aed" stroke-width="1.5"><title>838b9c4: Merge pull request #1 from XAOSTECH/anglicise/20260401-002733</title></circle>
    <circle class="commit-leaf" cx="-480" cy="2220" r="6" fill="url(#leafGradient)" stroke="#16a34a" stroke-width="1.5"><title>6b90c0c: chore: convert American spellings to British English</title></circle>
    <circle class="commit-leaf" cx="600" cy="2300" r="9" fill="url(#forkGradient)" stroke="#ea580c" stroke-width="1.5"><title>56414f6: chore: update CHANGELOG for v0.1.1 (re-release)</title></circle>
    <circle class="commit-leaf" cx="600" cy="2340" r="6" fill="url(#leafGradient)" stroke="#16a34a" stroke-width="1.5"><title>7a60e2a: chore(dc-init): load workflows,actions</title></circle>
    <circle class="commit-leaf" cx="600" cy="2380" r="6" fill="url(#leafGradient)" stroke="#16a34a" stroke-width="1.5"><title>6c844c9: chore(dc-init): load workflows,actions</title></circle>
    <circle class="commit-leaf" cx="600" cy="2420" r="6" fill="url(#leafGradient)" stroke="#16a34a" stroke-width="1.5"><title>9e895c3: chore(dc-init): update workflows,actions</title></circle>
    <circle class="commit-leaf" cx="600" cy="2460" r="6" fill="url(#leafGradient)" stroke="#16a34a" stroke-width="1.5"><title>ba2a231: chore(dc-init): recover interrupted update</title></circle>
    <circle class="commit-leaf" cx="600" cy="2500" r="6" fill="url(#leafGradient)" stroke="#16a34a" stroke-width="1.5"><title>d9474fe: refactor: modularise into lib/ directory</title></circle>
    <circle class="commit-leaf" cx="600" cy="2540" r="6" fill="url(#leafGradient)" stroke="#16a34a" stroke-width="1.5"><title>5f04186: chore: clean up docs</title></circle>
    <circle class="commit-leaf" cx="600" cy="2580" r="6" fill="url(#leafGradient)" stroke="#16a34a" stroke-width="1.5"><title>7c5f6f6: chore: update CHANGELOG for v0.1.1</title></circle>
    <circle class="commit-leaf" cx="600" cy="2620" r="6" fill="url(#leafGradient)" stroke="#16a34a" stroke-width="1.5"><title>730899f: Add managed prefix info and external EXE launcher command</title></circle>
    <circle class="commit-leaf" cx="600" cy="2660" r="6" fill="url(#leafGradient)" stroke="#16a34a" stroke-width="1.5"><title>ff3d29b: security: add global and command route rate limiting</title></circle>
    <circle class="commit-leaf" cx="600" cy="2700" r="6" fill="url(#leafGradient)" stroke="#16a34a" stroke-width="1.5"><title>b6ce59b: chore(dc-init): update workflows and actions</title></circle>
    <circle class="commit-leaf" cx="600" cy="2740" r="6" fill="url(#leafGradient)" stroke="#16a34a" stroke-width="1.5"><title>d3a6357: gc-init</title></circle>
    <circle class="commit-leaf" cx="600" cy="2780" r="6" fill="url(#tagGradient)" stroke="#0284c7" stroke-width="1.5"><title>4854ca9: Init</title></circle>
  </g>
  
  <!-- Legend -->
  <g id="legend" transform="translate(20, 20)">
    <rect width="200" height="110" fill="white" stroke="#cbd5e1" stroke-width="1" rx="4"/>
    <circle cx="20" cy="25" r="5" fill="url(#leafGradient)" stroke="#16a34a"/>
    <text x="32" y="30" class="branch-label" font-size="12">Regular Commit</text>
    <circle cx="20" cy="50" r="6" fill="url(#mergeGradient)" stroke="#7c3aed"/>
    <text x="32" y="55" class="branch-label" font-size="12">Merge Commit</text>
    <circle cx="20" cy="75" r="6" fill="url(#forkGradient)" stroke="#ea580c"/>
    <text x="32" y="80" class="branch-label" font-size="12">Fork Point</text>
    <circle cx="20" cy="100" r="6" fill="url(#tagGradient)" stroke="#0284c7"/>
    <text x="32" y="105" class="branch-label" font-size="12">Tagged</text>
  </g>
  
  <!-- Repository info -->
  <g id="info" transform="translate(20, 2860)">
    <text x="0" y="0" class="branch-label" font-size="12" fill="#666">
      Repository: wine-gaming
    </text>
    <text x="0" y="20" class="branch-label" font-size="10" fill="#999">
      Generated: 2026-05-04 02:13:41 UTC
    </text>
  </g>
</svg>
