<?xml version="1.0" encoding="UTF-8"?>
<svg xmlns="http://www.w3.org/2000/svg"
     width="300" height="414"
     viewBox="-500 40 2200 3040">
  <style>
    @keyframes sway {
      0%   { transform: translateX(0); }
      25%  { transform: translateX(3px); }
      50%  { transform: translateX(-2px); }
      75%  { transform: translateX(4px); }
      100% { transform: translateX(0); }
    }
    .mini-node { animation: sway 4s ease-in-out infinite; }
    .mini-line { stroke-width: 1.5; fill: none; opacity: 0.5; }
  </style>
  <rect width="100%" height="100%" fill="#0a0a1a" rx="6"/>
  <g class="mini-node">
    <line class="mini-line" stroke="#4ade80" x1="600" y1="60" x2="600" y2="100"/>
    <line class="mini-line" stroke="#4ade80" x1="600" y1="100" x2="600" y2="140"/>
    <line class="mini-line" stroke="#4ade80" x1="600" y1="140" x2="600" y2="180"/>
    <line class="mini-line" stroke="#4ade80" x1="600" y1="180" x2="600" y2="220"/>
    <line class="mini-line" stroke="#4ade80" x1="600" y1="220" x2="600" y2="260"/>
    <line class="mini-line" stroke="#4ade80" x1="600" y1="260" x2="600" y2="300"/>
    <line class="mini-line" stroke="#4ade80" x1="600" y1="300" x2="600" y2="340"/>
    <line class="mini-line" stroke="#4ade80" x1="600" y1="340" x2="600" y2="380"/>
    <line class="mini-line" stroke="#4ade80" x1="600" y1="380" x2="600" y2="420"/>
    <line class="mini-line" stroke="#4ade80" x1="600" y1="420" x2="600" y2="460"/>
    <line class="mini-line" stroke="#4ade80" x1="600" y1="460" x2="600" y2="500"/>
    <line class="mini-line" stroke="#4ade80" x1="600" y1="500" x2="600" y2="540"/>
    <line class="mini-line" stroke="#4ade80" x1="600" y1="540" x2="600" y2="580"/>
    <line class="mini-line" stroke="#4ade80" x1="600" y1="580" x2="600" y2="620"/>
    <line class="mini-line" stroke="#4ade80" x1="600" y1="620" x2="600" y2="660"/>
    <line class="mini-line" stroke="#4ade80" x1="600" y1="660" x2="600" y2="700"/>
    <line class="mini-line" stroke="#4ade80" x1="600" y1="700" x2="600" y2="2020"/>
    <path class="mini-line" stroke="#64748b" d="M 720 740 C 720 772, 480 788, 480 820"/>
    <path class="mini-line" stroke="#64748b" d="M 480 820 C 480 852, 840 868, 840 900"/>
    <path class="mini-line" stroke="#64748b" d="M 840 900 C 840 932, 360 948, 360 980"/>
    <path class="mini-line" stroke="#64748b" d="M 360 980 C 360 1012, 960 1028, 960 1060"/>
    <path class="mini-line" stroke="#64748b" d="M 960 1060 C 960 1092, 240 1108, 240 1140"/>
    <path class="mini-line" stroke="#64748b" d="M 240 1140 C 240 1172, 1080 1188, 1080 1220"/>
    <path class="mini-line" stroke="#64748b" d="M 1080 1220 C 1080 1252, 120 1268, 120 1300"/>
    <path class="mini-line" stroke="#64748b" d="M 120 1300 C 120 1332, 1200 1348, 1200 1380"/>
    <path class="mini-line" stroke="#64748b" d="M 1200 1380 C 1200 1412, 0 1428, 0 1460"/>
    <path class="mini-line" stroke="#64748b" d="M 0 1460 C 0 1492, 1320 1508, 1320 1540"/>
    <path class="mini-line" stroke="#64748b" d="M 1320 1540 C 1320 1572, -120 1588, -120 1620"/>
    <path class="mini-line" stroke="#64748b" d="M -120 1620 C -120 1652, 1440 1668, 1440 1700"/>
    <path class="mini-line" stroke="#64748b" d="M 1440 1700 C 1440 1732, -240 1748, -240 1780"/>
    <path class="mini-line" stroke="#64748b" d="M -240 1780 C -240 1812, 1560 1828, 1560 1860"/>
    <path class="mini-line" stroke="#64748b" d="M 1560 1860 C 1560 1892, -360 1908, -360 1940"/>
    <path class="mini-line" stroke="#64748b" d="M -360 1940 C -360 1972, 600 1988, 600 2020"/>
    <line class="mini-line" stroke="#4ade80" x1="600" y1="2020" x2="600" y2="2140"/>
    <path class="mini-line" stroke="#64748b" d="M 600 2020 C 600 2036, 1680 2044, 1680 2060"/>
    <path class="mini-line" stroke="#64748b" d="M 1680 2060 C 1680 2092, 600 2108, 600 2140"/>
    <line class="mini-line" stroke="#4ade80" x1="600" y1="2140" x2="600" y2="2180"/>
    <line class="mini-line" stroke="#4ade80" x1="600" y1="2180" x2="600" y2="2220"/>
    <line class="mini-line" stroke="#4ade80" x1="600" y1="2220" x2="600" y2="2260"/>
    <line class="mini-line" stroke="#4ade80" x1="600" y1="2260" x2="600" y2="2300"/>
    <line class="mini-line" stroke="#4ade80" x1="600" y1="2300" x2="600" y2="2340"/>
    <line class="mini-line" stroke="#4ade80" x1="600" y1="2340" x2="600" y2="2380"/>
    <line class="mini-line" stroke="#4ade80" x1="600" y1="2380" x2="600" y2="2420"/>
    <line class="mini-line" stroke="#4ade80" x1="600" y1="2420" x2="600" y2="2460"/>
    <line class="mini-line" stroke="#4ade80" x1="600" y1="2460" x2="600" y2="2580"/>
    <path class="mini-line" stroke="#64748b" d="M 600 2460 C 600 2476, -480 2484, -480 2500"/>
    <path class="mini-line" stroke="#64748b" d="M -480 2500 C -480 2532, 600 2548, 600 2580"/>
    <line class="mini-line" stroke="#4ade80" x1="600" y1="2580" x2="600" y2="2620"/>
    <line class="mini-line" stroke="#4ade80" x1="600" y1="2620" x2="600" y2="2660"/>
    <line class="mini-line" stroke="#4ade80" x1="600" y1="2660" x2="600" y2="2700"/>
    <line class="mini-line" stroke="#4ade80" x1="600" y1="2700" x2="600" y2="2740"/>
    <line class="mini-line" stroke="#4ade80" x1="600" y1="2740" x2="600" y2="2780"/>
    <line class="mini-line" stroke="#4ade80" x1="600" y1="2780" x2="600" y2="2820"/>
    <line class="mini-line" stroke="#4ade80" x1="600" y1="2820" x2="600" y2="2860"/>
    <line class="mini-line" stroke="#4ade80" x1="600" y1="2860" x2="600" y2="2900"/>
    <line class="mini-line" stroke="#4ade80" x1="600" y1="2900" x2="600" y2="2940"/>
    <line class="mini-line" stroke="#4ade80" x1="600" y1="2940" x2="600" y2="2980"/>
    <line class="mini-line" stroke="#4ade80" x1="600" y1="2980" x2="600" y2="3020"/>
    <line class="mini-line" stroke="#4ade80" x1="600" y1="3020" x2="600" y2="3060"/>
    <circle cx="600" cy="60" r="4" fill="#4ade80" opacity="0.9"/>
    <circle cx="600" cy="100" r="4" fill="#4ade80" opacity="0.9"/>
    <circle cx="600" cy="140" r="4" fill="#4ade80" opacity="0.9"/>
    <circle cx="600" cy="180" r="4" fill="#4ade80" opacity="0.9"/>
    <circle cx="600" cy="220" r="4" fill="#4ade80" opacity="0.9"/>
    <circle cx="600" cy="260" r="4" fill="#4ade80" opacity="0.9"/>
    <circle cx="600" cy="300" r="4" fill="#4ade80" opacity="0.9"/>
    <circle cx="600" cy="340" r="4" fill="#4ade80" opacity="0.9"/>
    <circle cx="600" cy="380" r="4" fill="#4ade80" opacity="0.9"/>
    <circle cx="600" cy="420" r="4" fill="#4ade80" opacity="0.9"/>
    <circle cx="600" cy="460" r="4" fill="#4ade80" opacity="0.9"/>
    <circle cx="600" cy="500" r="4" fill="#4ade80" opacity="0.9"/>
    <circle cx="600" cy="540" r="4" fill="#4ade80" opacity="0.9"/>
    <circle cx="600" cy="580" r="4" fill="#4ade80" opacity="0.9"/>
    <circle cx="600" cy="620" r="4" fill="#4ade80" opacity="0.9"/>
    <circle cx="600" cy="660" r="4" fill="#4ade80" opacity="0.9"/>
    <circle cx="600" cy="700" r="4" fill="#4ade80" opacity="0.9"/>
    <circle cx="720" cy="740" r="4" fill="#4ade80" opacity="0.9"/>
    <circle cx="480" cy="820" r="4" fill="#4ade80" opacity="0.9"/>
    <circle cx="840" cy="900" r="4" fill="#4ade80" opacity="0.9"/>
    <circle cx="360" cy="980" r="4" fill="#4ade80" opacity="0.9"/>
    <circle cx="960" cy="1060" r="4" fill="#4ade80" opacity="0.9"/>
    <circle cx="240" cy="1140" r="4" fill="#4ade80" opacity="0.9"/>
    <circle cx="1080" cy="1220" r="4" fill="#4ade80" opacity="0.9"/>
    <circle cx="120" cy="1300" r="4" fill="#4ade80" opacity="0.9"/>
    <circle cx="1200" cy="1380" r="4" fill="#4ade80" opacity="0.9"/>
    <circle cx="0" cy="1460" r="4" fill="#4ade80" opacity="0.9"/>
    <circle cx="1320" cy="1540" r="4" fill="#4ade80" opacity="0.9"/>
    <circle cx="-120" cy="1620" r="4" fill="#4ade80" opacity="0.9"/>
    <circle cx="1440" cy="1700" r="4" fill="#4ade80" opacity="0.9"/>
    <circle cx="-240" cy="1780" r="4" fill="#4ade80" opacity="0.9"/>
    <circle cx="1560" cy="1860" r="4" fill="#4ade80" opacity="0.9"/>
    <circle cx="-360" cy="1940" r="4" fill="#4ade80" opacity="0.9"/>
    <circle cx="600" cy="2020" r="7" fill="#c084fc" opacity="0.9"/>
    <circle cx="1680" cy="2060" r="4" fill="#4ade80" opacity="0.9"/>
    <circle cx="600" cy="2140" r="6" fill="#fb923c" opacity="0.9"/>
    <circle cx="600" cy="2180" r="4" fill="#4ade80" opacity="0.9"/>
    <circle cx="600" cy="2220" r="4" fill="#4ade80" opacity="0.9"/>
    <circle cx="600" cy="2260" r="4" fill="#4ade80" opacity="0.9"/>
    <circle cx="600" cy="2300" r="4" fill="#4ade80" opacity="0.9"/>
    <circle cx="600" cy="2340" r="4" fill="#4ade80" opacity="0.9"/>
    <circle cx="600" cy="2380" r="4" fill="#4ade80" opacity="0.9"/>
    <circle cx="600" cy="2420" r="4" fill="#4ade80" opacity="0.9"/>
    <circle cx="600" cy="2460" r="7" fill="#c084fc" opacity="0.9"/>
    <circle cx="-480" cy="2500" r="4" fill="#4ade80" opacity="0.9"/>
    <circle cx="600" cy="2580" r="6" fill="#fb923c" opacity="0.9"/>
    <circle cx="600" cy="2620" r="4" fill="#4ade80" opacity="0.9"/>
    <circle cx="600" cy="2660" r="4" fill="#4ade80" opacity="0.9"/>
    <circle cx="600" cy="2700" r="4" fill="#4ade80" opacity="0.9"/>
    <circle cx="600" cy="2740" r="4" fill="#4ade80" opacity="0.9"/>
    <circle cx="600" cy="2780" r="4" fill="#4ade80" opacity="0.9"/>
    <circle cx="600" cy="2820" r="4" fill="#4ade80" opacity="0.9"/>
    <circle cx="600" cy="2860" r="4" fill="#4ade80" opacity="0.9"/>
    <circle cx="600" cy="2900" r="4" fill="#4ade80" opacity="0.9"/>
    <circle cx="600" cy="2940" r="4" fill="#4ade80" opacity="0.9"/>
    <circle cx="600" cy="2980" r="4" fill="#4ade80" opacity="0.9"/>
    <circle cx="600" cy="3020" r="4" fill="#4ade80" opacity="0.9"/>
    <circle cx="600" cy="3060" r="4" fill="#38bdf8" opacity="0.9"/>
  </g>
</svg>
