<?xml version="1.0" encoding="UTF-8"?>
<svg xmlns="http://www.w3.org/2000/svg"
     width="300" height="425"
     viewBox="-500 40 2200 3120">
  <style>
    @keyframes sway {
      0%   { transform: translateX(0); }
      25%  { transform: translateX(3px); }
      50%  { transform: translateX(-2px); }
      75%  { transform: translateX(4px); }
      100% { transform: translateX(0); }
    }
    .mini-node { animation: sway 4s ease-in-out infinite; }
    .mini-line { stroke-width: 1.5; fill: none; opacity: 0.5; }
  </style>
  <rect width="100%" height="100%" fill="#0a0a1a" rx="6"/>
  <g class="mini-node">
    <line class="mini-line" stroke="#4ade80" x1="600" y1="60" x2="600" y2="100"/>
    <line class="mini-line" stroke="#4ade80" x1="600" y1="100" x2="600" y2="140"/>
    <line class="mini-line" stroke="#4ade80" x1="600" y1="140" x2="600" y2="180"/>
    <line class="mini-line" stroke="#4ade80" x1="600" y1="180" x2="600" y2="220"/>
    <line class="mini-line" stroke="#4ade80" x1="600" y1="220" x2="600" y2="260"/>
    <line class="mini-line" stroke="#4ade80" x1="600" y1="260" x2="600" y2="300"/>
    <line class="mini-line" stroke="#4ade80" x1="600" y1="300" x2="600" y2="340"/>
    <line class="mini-line" stroke="#4ade80" x1="600" y1="340" x2="600" y2="380"/>
    <line class="mini-line" stroke="#4ade80" x1="600" y1="380" x2="600" y2="420"/>
    <line class="mini-line" stroke="#4ade80" x1="600" y1="420" x2="600" y2="460"/>
    <line class="mini-line" stroke="#4ade80" x1="600" y1="460" x2="600" y2="500"/>
    <line class="mini-line" stroke="#4ade80" x1="600" y1="500" x2="600" y2="540"/>
    <line class="mini-line" stroke="#4ade80" x1="600" y1="540" x2="600" y2="580"/>
    <line class="mini-line" stroke="#4ade80" x1="600" y1="580" x2="600" y2="620"/>
    <line class="mini-line" stroke="#4ade80" x1="600" y1="620" x2="600" y2="660"/>
    <line class="mini-line" stroke="#4ade80" x1="600" y1="660" x2="600" y2="700"/>
    <line class="mini-line" stroke="#4ade80" x1="600" y1="700" x2="600" y2="740"/>
    <line class="mini-line" stroke="#4ade80" x1="600" y1="740" x2="600" y2="780"/>
    <line class="mini-line" stroke="#4ade80" x1="600" y1="780" x2="600" y2="2100"/>
    <path class="mini-line" stroke="#64748b" d="M 720 820 C 720 852, 480 868, 480 900"/>
    <path class="mini-line" stroke="#64748b" d="M 480 900 C 480 932, 840 948, 840 980"/>
    <path class="mini-line" stroke="#64748b" d="M 840 980 C 840 1012, 360 1028, 360 1060"/>
    <path class="mini-line" stroke="#64748b" d="M 360 1060 C 360 1092, 960 1108, 960 1140"/>
    <path class="mini-line" stroke="#64748b" d="M 960 1140 C 960 1172, 240 1188, 240 1220"/>
    <path class="mini-line" stroke="#64748b" d="M 240 1220 C 240 1252, 1080 1268, 1080 1300"/>
    <path class="mini-line" stroke="#64748b" d="M 1080 1300 C 1080 1332, 120 1348, 120 1380"/>
    <path class="mini-line" stroke="#64748b" d="M 120 1380 C 120 1412, 1200 1428, 1200 1460"/>
    <path class="mini-line" stroke="#64748b" d="M 1200 1460 C 1200 1492, 0 1508, 0 1540"/>
    <path class="mini-line" stroke="#64748b" d="M 0 1540 C 0 1572, 1320 1588, 1320 1620"/>
    <path class="mini-line" stroke="#64748b" d="M 1320 1620 C 1320 1652, -120 1668, -120 1700"/>
    <path class="mini-line" stroke="#64748b" d="M -120 1700 C -120 1732, 1440 1748, 1440 1780"/>
    <path class="mini-line" stroke="#64748b" d="M 1440 1780 C 1440 1812, -240 1828, -240 1860"/>
    <path class="mini-line" stroke="#64748b" d="M -240 1860 C -240 1892, 1560 1908, 1560 1940"/>
    <path class="mini-line" stroke="#64748b" d="M 1560 1940 C 1560 1972, -360 1988, -360 2020"/>
    <path class="mini-line" stroke="#64748b" d="M -360 2020 C -360 2052, 600 2068, 600 2100"/>
    <line class="mini-line" stroke="#4ade80" x1="600" y1="2100" x2="600" y2="2220"/>
    <path class="mini-line" stroke="#64748b" d="M 600 2100 C 600 2116, 1680 2124, 1680 2140"/>
    <path class="mini-line" stroke="#64748b" d="M 1680 2140 C 1680 2172, 600 2188, 600 2220"/>
    <line class="mini-line" stroke="#4ade80" x1="600" y1="2220" x2="600" y2="2260"/>
    <line class="mini-line" stroke="#4ade80" x1="600" y1="2260" x2="600" y2="2300"/>
    <line class="mini-line" stroke="#4ade80" x1="600" y1="2300" x2="600" y2="2340"/>
    <line class="mini-line" stroke="#4ade80" x1="600" y1="2340" x2="600" y2="2380"/>
    <line class="mini-line" stroke="#4ade80" x1="600" y1="2380" x2="600" y2="2420"/>
    <line class="mini-line" stroke="#4ade80" x1="600" y1="2420" x2="600" y2="2460"/>
    <line class="mini-line" stroke="#4ade80" x1="600" y1="2460" x2="600" y2="2500"/>
    <line class="mini-line" stroke="#4ade80" x1="600" y1="2500" x2="600" y2="2540"/>
    <line class="mini-line" stroke="#4ade80" x1="600" y1="2540" x2="600" y2="2660"/>
    <path class="mini-line" stroke="#64748b" d="M 600 2540 C 600 2556, -480 2564, -480 2580"/>
    <path class="mini-line" stroke="#64748b" d="M -480 2580 C -480 2612, 600 2628, 600 2660"/>
    <line class="mini-line" stroke="#4ade80" x1="600" y1="2660" x2="600" y2="2700"/>
    <line class="mini-line" stroke="#4ade80" x1="600" y1="2700" x2="600" y2="2740"/>
    <line class="mini-line" stroke="#4ade80" x1="600" y1="2740" x2="600" y2="2780"/>
    <line class="mini-line" stroke="#4ade80" x1="600" y1="2780" x2="600" y2="2820"/>
    <line class="mini-line" stroke="#4ade80" x1="600" y1="2820" x2="600" y2="2860"/>
    <line class="mini-line" stroke="#4ade80" x1="600" y1="2860" x2="600" y2="2900"/>
    <line class="mini-line" stroke="#4ade80" x1="600" y1="2900" x2="600" y2="2940"/>
    <line class="mini-line" stroke="#4ade80" x1="600" y1="2940" x2="600" y2="2980"/>
    <line class="mini-line" stroke="#4ade80" x1="600" y1="2980" x2="600" y2="3020"/>
    <line class="mini-line" stroke="#4ade80" x1="600" y1="3020" x2="600" y2="3060"/>
    <line class="mini-line" stroke="#4ade80" x1="600" y1="3060" x2="600" y2="3100"/>
    <line class="mini-line" stroke="#4ade80" x1="600" y1="3100" x2="600" y2="3140"/>
    <circle cx="600" cy="60" r="4" fill="#4ade80" opacity="0.9"/>
    <circle cx="600" cy="100" r="4" fill="#4ade80" opacity="0.9"/>
    <circle cx="600" cy="140" r="4" fill="#4ade80" opacity="0.9"/>
    <circle cx="600" cy="180" r="4" fill="#4ade80" opacity="0.9"/>
    <circle cx="600" cy="220" r="4" fill="#4ade80" opacity="0.9"/>
    <circle cx="600" cy="260" r="4" fill="#4ade80" opacity="0.9"/>
    <circle cx="600" cy="300" r="4" fill="#4ade80" opacity="0.9"/>
    <circle cx="600" cy="340" r="4" fill="#4ade80" opacity="0.9"/>
    <circle cx="600" cy="380" r="4" fill="#4ade80" opacity="0.9"/>
    <circle cx="600" cy="420" r="4" fill="#4ade80" opacity="0.9"/>
    <circle cx="600" cy="460" r="4" fill="#4ade80" opacity="0.9"/>
    <circle cx="600" cy="500" r="4" fill="#4ade80" opacity="0.9"/>
    <circle cx="600" cy="540" r="4" fill="#4ade80" opacity="0.9"/>
    <circle cx="600" cy="580" r="4" fill="#4ade80" opacity="0.9"/>
    <circle cx="600" cy="620" r="4" fill="#4ade80" opacity="0.9"/>
    <circle cx="600" cy="660" r="4" fill="#4ade80" opacity="0.9"/>
    <circle cx="600" cy="700" r="4" fill="#4ade80" opacity="0.9"/>
    <circle cx="600" cy="740" r="4" fill="#4ade80" opacity="0.9"/>
    <circle cx="600" cy="780" r="4" fill="#4ade80" opacity="0.9"/>
    <circle cx="720" cy="820" r="4" fill="#4ade80" opacity="0.9"/>
    <circle cx="480" cy="900" r="4" fill="#4ade80" opacity="0.9"/>
    <circle cx="840" cy="980" r="4" fill="#4ade80" opacity="0.9"/>
    <circle cx="360" cy="1060" r="4" fill="#4ade80" opacity="0.9"/>
    <circle cx="960" cy="1140" r="4" fill="#4ade80" opacity="0.9"/>
    <circle cx="240" cy="1220" r="4" fill="#4ade80" opacity="0.9"/>
    <circle cx="1080" cy="1300" r="4" fill="#4ade80" opacity="0.9"/>
    <circle cx="120" cy="1380" r="4" fill="#4ade80" opacity="0.9"/>
    <circle cx="1200" cy="1460" r="4" fill="#4ade80" opacity="0.9"/>
    <circle cx="0" cy="1540" r="4" fill="#4ade80" opacity="0.9"/>
    <circle cx="1320" cy="1620" r="4" fill="#4ade80" opacity="0.9"/>
    <circle cx="-120" cy="1700" r="4" fill="#4ade80" opacity="0.9"/>
    <circle cx="1440" cy="1780" r="4" fill="#4ade80" opacity="0.9"/>
    <circle cx="-240" cy="1860" r="4" fill="#4ade80" opacity="0.9"/>
    <circle cx="1560" cy="1940" r="4" fill="#4ade80" opacity="0.9"/>
    <circle cx="-360" cy="2020" r="4" fill="#4ade80" opacity="0.9"/>
    <circle cx="600" cy="2100" r="7" fill="#c084fc" opacity="0.9"/>
    <circle cx="1680" cy="2140" r="4" fill="#4ade80" opacity="0.9"/>
    <circle cx="600" cy="2220" r="6" fill="#fb923c" opacity="0.9"/>
    <circle cx="600" cy="2260" r="4" fill="#4ade80" opacity="0.9"/>
    <circle cx="600" cy="2300" r="4" fill="#4ade80" opacity="0.9"/>
    <circle cx="600" cy="2340" r="4" fill="#4ade80" opacity="0.9"/>
    <circle cx="600" cy="2380" r="4" fill="#4ade80" opacity="0.9"/>
    <circle cx="600" cy="2420" r="4" fill="#4ade80" opacity="0.9"/>
    <circle cx="600" cy="2460" r="4" fill="#4ade80" opacity="0.9"/>
    <circle cx="600" cy="2500" r="4" fill="#4ade80" opacity="0.9"/>
    <circle cx="600" cy="2540" r="7" fill="#c084fc" opacity="0.9"/>
    <circle cx="-480" cy="2580" r="4" fill="#4ade80" opacity="0.9"/>
    <circle cx="600" cy="2660" r="6" fill="#fb923c" opacity="0.9"/>
    <circle cx="600" cy="2700" r="4" fill="#4ade80" opacity="0.9"/>
    <circle cx="600" cy="2740" r="4" fill="#4ade80" opacity="0.9"/>
    <circle cx="600" cy="2780" r="4" fill="#4ade80" opacity="0.9"/>
    <circle cx="600" cy="2820" r="4" fill="#4ade80" opacity="0.9"/>
    <circle cx="600" cy="2860" r="4" fill="#4ade80" opacity="0.9"/>
    <circle cx="600" cy="2900" r="4" fill="#4ade80" opacity="0.9"/>
    <circle cx="600" cy="2940" r="4" fill="#4ade80" opacity="0.9"/>
    <circle cx="600" cy="2980" r="4" fill="#4ade80" opacity="0.9"/>
    <circle cx="600" cy="3020" r="4" fill="#4ade80" opacity="0.9"/>
    <circle cx="600" cy="3060" r="4" fill="#4ade80" opacity="0.9"/>
    <circle cx="600" cy="3100" r="4" fill="#4ade80" opacity="0.9"/>
    <circle cx="600" cy="3140" r="4" fill="#38bdf8" opacity="0.9"/>
  </g>
</svg>
