<?xml version="1.0" encoding="UTF-8"?>
<svg xmlns="http://www.w3.org/2000/svg"
     width="300" height="381"
     viewBox="-500 40 2200 2800">
  <style>
    @keyframes sway {
      0%   { transform: translateX(0); }
      25%  { transform: translateX(3px); }
      50%  { transform: translateX(-2px); }
      75%  { transform: translateX(4px); }
      100% { transform: translateX(0); }
    }
    .mini-node { animation: sway 4s ease-in-out infinite; }
    .mini-line { stroke-width: 1.5; fill: none; opacity: 0.5; }
  </style>
  <rect width="100%" height="100%" fill="#0a0a1a" rx="6"/>
  <g class="mini-node">
    <line class="mini-line" stroke="#4ade80" x1="600" y1="60" x2="600" y2="100"/>
    <line class="mini-line" stroke="#4ade80" x1="600" y1="100" x2="600" y2="140"/>
    <line class="mini-line" stroke="#4ade80" x1="600" y1="140" x2="600" y2="180"/>
    <line class="mini-line" stroke="#4ade80" x1="600" y1="180" x2="600" y2="220"/>
    <line class="mini-line" stroke="#4ade80" x1="600" y1="220" x2="600" y2="260"/>
    <line class="mini-line" stroke="#4ade80" x1="600" y1="260" x2="600" y2="300"/>
    <line class="mini-line" stroke="#4ade80" x1="600" y1="300" x2="600" y2="340"/>
    <line class="mini-line" stroke="#4ade80" x1="600" y1="340" x2="600" y2="380"/>
    <line class="mini-line" stroke="#4ade80" x1="600" y1="380" x2="600" y2="420"/>
    <line class="mini-line" stroke="#4ade80" x1="600" y1="420" x2="600" y2="460"/>
    <line class="mini-line" stroke="#4ade80" x1="600" y1="460" x2="600" y2="1780"/>
    <path class="mini-line" stroke="#64748b" d="M 720 500 C 720 532, 480 548, 480 580"/>
    <path class="mini-line" stroke="#64748b" d="M 480 580 C 480 612, 840 628, 840 660"/>
    <path class="mini-line" stroke="#64748b" d="M 840 660 C 840 692, 360 708, 360 740"/>
    <path class="mini-line" stroke="#64748b" d="M 360 740 C 360 772, 960 788, 960 820"/>
    <path class="mini-line" stroke="#64748b" d="M 960 820 C 960 852, 240 868, 240 900"/>
    <path class="mini-line" stroke="#64748b" d="M 240 900 C 240 932, 1080 948, 1080 980"/>
    <path class="mini-line" stroke="#64748b" d="M 1080 980 C 1080 1012, 120 1028, 120 1060"/>
    <path class="mini-line" stroke="#64748b" d="M 120 1060 C 120 1092, 1200 1108, 1200 1140"/>
    <path class="mini-line" stroke="#64748b" d="M 1200 1140 C 1200 1172, 0 1188, 0 1220"/>
    <path class="mini-line" stroke="#64748b" d="M 0 1220 C 0 1252, 1320 1268, 1320 1300"/>
    <path class="mini-line" stroke="#64748b" d="M 1320 1300 C 1320 1332, -120 1348, -120 1380"/>
    <path class="mini-line" stroke="#64748b" d="M -120 1380 C -120 1412, 1440 1428, 1440 1460"/>
    <path class="mini-line" stroke="#64748b" d="M 1440 1460 C 1440 1492, -240 1508, -240 1540"/>
    <path class="mini-line" stroke="#64748b" d="M -240 1540 C -240 1572, 1560 1588, 1560 1620"/>
    <path class="mini-line" stroke="#64748b" d="M 1560 1620 C 1560 1652, -360 1668, -360 1700"/>
    <path class="mini-line" stroke="#64748b" d="M -360 1700 C -360 1732, 600 1748, 600 1780"/>
    <line class="mini-line" stroke="#4ade80" x1="600" y1="1780" x2="600" y2="1900"/>
    <path class="mini-line" stroke="#64748b" d="M 600 1780 C 600 1796, 1680 1804, 1680 1820"/>
    <path class="mini-line" stroke="#64748b" d="M 1680 1820 C 1680 1852, 600 1868, 600 1900"/>
    <line class="mini-line" stroke="#4ade80" x1="600" y1="1900" x2="600" y2="1940"/>
    <line class="mini-line" stroke="#4ade80" x1="600" y1="1940" x2="600" y2="1980"/>
    <line class="mini-line" stroke="#4ade80" x1="600" y1="1980" x2="600" y2="2020"/>
    <line class="mini-line" stroke="#4ade80" x1="600" y1="2020" x2="600" y2="2060"/>
    <line class="mini-line" stroke="#4ade80" x1="600" y1="2060" x2="600" y2="2100"/>
    <line class="mini-line" stroke="#4ade80" x1="600" y1="2100" x2="600" y2="2140"/>
    <line class="mini-line" stroke="#4ade80" x1="600" y1="2140" x2="600" y2="2180"/>
    <line class="mini-line" stroke="#4ade80" x1="600" y1="2180" x2="600" y2="2220"/>
    <line class="mini-line" stroke="#4ade80" x1="600" y1="2220" x2="600" y2="2340"/>
    <path class="mini-line" stroke="#64748b" d="M 600 2220 C 600 2236, -480 2244, -480 2260"/>
    <path class="mini-line" stroke="#64748b" d="M -480 2260 C -480 2292, 600 2308, 600 2340"/>
    <line class="mini-line" stroke="#4ade80" x1="600" y1="2340" x2="600" y2="2380"/>
    <line class="mini-line" stroke="#4ade80" x1="600" y1="2380" x2="600" y2="2420"/>
    <line class="mini-line" stroke="#4ade80" x1="600" y1="2420" x2="600" y2="2460"/>
    <line class="mini-line" stroke="#4ade80" x1="600" y1="2460" x2="600" y2="2500"/>
    <line class="mini-line" stroke="#4ade80" x1="600" y1="2500" x2="600" y2="2540"/>
    <line class="mini-line" stroke="#4ade80" x1="600" y1="2540" x2="600" y2="2580"/>
    <line class="mini-line" stroke="#4ade80" x1="600" y1="2580" x2="600" y2="2620"/>
    <line class="mini-line" stroke="#4ade80" x1="600" y1="2620" x2="600" y2="2660"/>
    <line class="mini-line" stroke="#4ade80" x1="600" y1="2660" x2="600" y2="2700"/>
    <line class="mini-line" stroke="#4ade80" x1="600" y1="2700" x2="600" y2="2740"/>
    <line class="mini-line" stroke="#4ade80" x1="600" y1="2740" x2="600" y2="2780"/>
    <line class="mini-line" stroke="#4ade80" x1="600" y1="2780" x2="600" y2="2820"/>
    <circle cx="600" cy="60" r="4" fill="#4ade80" opacity="0.9"/>
    <circle cx="600" cy="100" r="4" fill="#4ade80" opacity="0.9"/>
    <circle cx="600" cy="140" r="4" fill="#4ade80" opacity="0.9"/>
    <circle cx="600" cy="180" r="4" fill="#4ade80" opacity="0.9"/>
    <circle cx="600" cy="220" r="4" fill="#4ade80" opacity="0.9"/>
    <circle cx="600" cy="260" r="4" fill="#4ade80" opacity="0.9"/>
    <circle cx="600" cy="300" r="4" fill="#4ade80" opacity="0.9"/>
    <circle cx="600" cy="340" r="4" fill="#4ade80" opacity="0.9"/>
    <circle cx="600" cy="380" r="4" fill="#4ade80" opacity="0.9"/>
    <circle cx="600" cy="420" r="4" fill="#4ade80" opacity="0.9"/>
    <circle cx="600" cy="460" r="4" fill="#4ade80" opacity="0.9"/>
    <circle cx="720" cy="500" r="4" fill="#4ade80" opacity="0.9"/>
    <circle cx="480" cy="580" r="4" fill="#4ade80" opacity="0.9"/>
    <circle cx="840" cy="660" r="4" fill="#4ade80" opacity="0.9"/>
    <circle cx="360" cy="740" r="4" fill="#4ade80" opacity="0.9"/>
    <circle cx="960" cy="820" r="4" fill="#4ade80" opacity="0.9"/>
    <circle cx="240" cy="900" r="4" fill="#4ade80" opacity="0.9"/>
    <circle cx="1080" cy="980" r="4" fill="#4ade80" opacity="0.9"/>
    <circle cx="120" cy="1060" r="4" fill="#4ade80" opacity="0.9"/>
    <circle cx="1200" cy="1140" r="4" fill="#4ade80" opacity="0.9"/>
    <circle cx="0" cy="1220" r="4" fill="#4ade80" opacity="0.9"/>
    <circle cx="1320" cy="1300" r="4" fill="#4ade80" opacity="0.9"/>
    <circle cx="-120" cy="1380" r="4" fill="#4ade80" opacity="0.9"/>
    <circle cx="1440" cy="1460" r="4" fill="#4ade80" opacity="0.9"/>
    <circle cx="-240" cy="1540" r="4" fill="#4ade80" opacity="0.9"/>
    <circle cx="1560" cy="1620" r="4" fill="#4ade80" opacity="0.9"/>
    <circle cx="-360" cy="1700" r="4" fill="#4ade80" opacity="0.9"/>
    <circle cx="600" cy="1780" r="7" fill="#c084fc" opacity="0.9"/>
    <circle cx="1680" cy="1820" r="4" fill="#4ade80" opacity="0.9"/>
    <circle cx="600" cy="1900" r="6" fill="#fb923c" opacity="0.9"/>
    <circle cx="600" cy="1940" r="4" fill="#4ade80" opacity="0.9"/>
    <circle cx="600" cy="1980" r="4" fill="#4ade80" opacity="0.9"/>
    <circle cx="600" cy="2020" r="4" fill="#4ade80" opacity="0.9"/>
    <circle cx="600" cy="2060" r="4" fill="#4ade80" opacity="0.9"/>
    <circle cx="600" cy="2100" r="4" fill="#4ade80" opacity="0.9"/>
    <circle cx="600" cy="2140" r="4" fill="#4ade80" opacity="0.9"/>
    <circle cx="600" cy="2180" r="4" fill="#4ade80" opacity="0.9"/>
    <circle cx="600" cy="2220" r="7" fill="#c084fc" opacity="0.9"/>
    <circle cx="-480" cy="2260" r="4" fill="#4ade80" opacity="0.9"/>
    <circle cx="600" cy="2340" r="6" fill="#fb923c" opacity="0.9"/>
    <circle cx="600" cy="2380" r="4" fill="#4ade80" opacity="0.9"/>
    <circle cx="600" cy="2420" r="4" fill="#4ade80" opacity="0.9"/>
    <circle cx="600" cy="2460" r="4" fill="#4ade80" opacity="0.9"/>
    <circle cx="600" cy="2500" r="4" fill="#4ade80" opacity="0.9"/>
    <circle cx="600" cy="2540" r="4" fill="#4ade80" opacity="0.9"/>
    <circle cx="600" cy="2580" r="4" fill="#4ade80" opacity="0.9"/>
    <circle cx="600" cy="2620" r="4" fill="#4ade80" opacity="0.9"/>
    <circle cx="600" cy="2660" r="4" fill="#4ade80" opacity="0.9"/>
    <circle cx="600" cy="2700" r="4" fill="#4ade80" opacity="0.9"/>
    <circle cx="600" cy="2740" r="4" fill="#4ade80" opacity="0.9"/>
    <circle cx="600" cy="2780" r="4" fill="#4ade80" opacity="0.9"/>
    <circle cx="600" cy="2820" r="4" fill="#38bdf8" opacity="0.9"/>
  </g>
</svg>
